<svg width="98" height="85" viewBox="0 0 98 85" fill="none" xmlns="http://www.w3.org/2000/svg">
<g clip-path="url(#clip0_29_179)">
<path d="M62.8174 69.1429C67.267 69.1429 70.8742 65.5421 70.8742 61.1004C70.8742 56.6589 67.267 53.0581 62.8174 53.0581C58.3678 53.0581 54.7608 56.6589 54.7608 61.1004C54.7608 65.5421 58.3678 69.1429 62.8174 69.1429Z" fill="url(#paint0_linear_29_179)"/>
<path d="M16.8817 64.0589C12.251 66.4639 0.397202 69.7925 0.397202 46.4925C0.397202 23.1924 5.02784 18.3872 8.642 18.3872C12.256 18.3872 14.6603 18.7576 17.2528 15.4291C19.8451 12.1005 23.9218 10.4362 29.8486 10.9893C35.7754 11.5423 37.702 8.04116 39.9284 5.08301C42.1496 2.12485 48.1884 -1.7669 53.7441 2.2974C59.2999 6.3617 62.8224 6.73714 66.7111 4.51469C70.5996 2.2974 80.7861 1.92697 85.0509 10.6189C89.3105 19.3106 91.3488 27.8148 91.3488 33.7311C91.3488 39.6476 93.3872 44.8231 95.4254 48.8925C97.4637 52.9618 99.6851 61.6487 93.9411 71.6344C88.1972 81.6201 87.8263 84.761 80.4202 84.208C73.009 83.6549 67.4735 82.361 51.5228 82.361C48.5593 82.361 44.2998 81.0671 44.2998 76.9977C44.2998 72.9284 48.7474 68.6762 54.3033 66.4589C59.859 64.2415 76.1605 62.2069 78.5699 57.5843C80.9792 52.9618 47.4512 56.1027 47.4512 56.1027L16.8817 64.0589Z" fill="url(#paint1_linear_29_179)"/>
<path d="M93.936 71.6383C99.6799 61.6525 97.4535 52.9658 95.4203 48.8964C93.6311 45.3242 91.8419 40.8946 91.4353 35.8561C91.4353 35.8611 91.4353 35.8611 91.4353 35.8611C91.6385 40.5698 83.3836 55.1374 78.5648 57.5832C76.1555 62.2057 59.859 64.2404 54.2981 66.4577C48.7424 68.6751 44.2946 72.9271 44.2946 76.9964C44.2946 81.0659 48.5543 82.3598 51.5178 82.3598C67.4633 82.3598 73.0039 83.6536 80.4151 84.2068C87.8211 84.7649 88.1922 81.6191 93.936 71.6383Z" fill="url(#paint2_radial_29_179)"/>
<path d="M87.0889 15.2119C87.4802 16.1811 87.8056 17.1299 88.141 18.0788C87.8056 17.1249 87.4854 16.1811 87.0889 15.2119Z" fill="url(#paint3_linear_29_179)"/>
<path d="M83.6021 8.32046C83.6937 8.43722 83.7851 8.55898 83.8715 8.68074C83.7851 8.55898 83.6937 8.44222 83.6021 8.32046Z" fill="url(#paint4_linear_29_179)"/>
<path d="M88.9342 20.7463C88.9444 20.4874 88.8731 20.2744 88.8478 20.0207C88.8021 19.8735 88.7308 19.7214 88.6851 19.5691C88.3751 58.5125 88.929 68.1227 76.5212 68.1227C64.1084 68.1227 63.1832 63.5003 63.1832 61.4655C63.1832 60.6537 63.1223 57.4012 63.051 53.3268V53.3319C63.051 64.7941 61.145 69.4217 52.2496 69.4217C51.177 69.4217 50.1655 69.3863 49.2099 69.3152C48.549 69.8175 47.9391 70.3452 47.385 70.8932C46.5667 71.7101 50.3993 75.3381 63.5036 73.4404C66.1162 73.065 84.0087 78.7174 89.4933 67.5444C91.8621 62.7442 87.8667 53.2608 88.9342 20.7463Z" fill="url(#paint5_linear_29_179)"/>
<path d="M88.6852 19.5482C87.7295 16.661 86.5299 13.6521 85.0406 10.6178C80.781 1.92589 70.5946 2.29633 66.7009 4.51377C65.3946 5.25964 64.1238 5.68072 62.8123 5.80248V34.6587C62.8123 42.2394 63.1834 59.4354 63.1834 61.4701C63.1834 63.5047 64.1084 68.1273 76.5214 68.1273C88.9342 68.1221 88.3802 58.5119 88.6852 19.5482Z" fill="url(#paint6_linear_29_179)"/>
<path d="M53.744 2.30179C48.1883 -1.76751 42.1495 2.12939 39.9282 5.08755C38.4998 6.9902 37.1325 8.65966 34.8299 10.0093C34.8299 10.0145 34.8299 10.0246 34.8299 10.0296C34.9925 21.5173 35.2213 31.701 35.2213 31.701C35.2213 41.6867 37.1529 51.6369 37.656 57.4214C38.5151 67.26 43.3694 69.4215 52.2598 69.4215C61.15 69.4215 63.0562 64.794 63.0562 53.3317C63.0562 45.0761 63.0562 19.4623 63.0562 5.77762C60.3927 6.10226 57.5462 5.08755 53.744 2.30179Z" fill="url(#paint7_linear_29_179)"/>
<path d="M14.4721 38.9102C14.1774 30.9034 14.8483 23.2821 15.7836 16.9193C13.6995 18.5937 11.5645 18.3857 8.63683 18.3857C5.02267 18.3857 0.391998 23.1909 0.391998 46.4908C0.391998 69.791 12.2458 66.4624 16.8765 64.0572L17.2069 63.9711C15.7175 59.3232 14.9398 51.6411 14.4721 38.9102Z" fill="url(#paint8_linear_29_179)"/>
<path d="M37.6563 57.4213C37.1784 51.9515 35.4502 42.7572 35.257 33.3348C35.2366 32.7613 35.2215 32.2083 35.2215 31.701C35.2215 31.701 34.9927 21.5173 34.83 10.0296C34.83 10.0245 34.83 10.0143 34.83 10.0093C33.549 10.7602 31.9682 11.1916 29.8538 10.9937C23.9268 10.4405 19.8502 12.1048 17.2578 15.4334C16.7647 16.0677 16.2768 16.5294 15.7887 16.9252C14.8535 23.2932 14.1825 30.9093 14.4774 38.9161C15.5905 69.2387 18.4575 70.9945 28.5524 70.9945C34.3421 70.9945 38.5001 69.2794 40.1723 65.3723C40.1673 65.3622 40.1622 65.3418 40.1571 65.3267C38.8049 63.5153 37.9663 60.9732 37.6563 57.4213Z" fill="url(#paint9_linear_29_179)"/>
<path d="M52.2599 69.4206C61.1502 69.4206 63.0615 64.7931 63.0615 53.3307V53.3256C63.1326 57.4002 63.1937 60.6527 63.1937 61.4645C63.1937 63.4992 64.1188 68.1217 76.5316 68.1217C88.9394 68.1217 88.3854 58.5113 88.6954 19.5476C88.2684 18.2538 87.7754 16.9344 87.2467 15.6051C85.4575 22.4145 82.6466 34.6887 82.6466 44.6591C82.6466 59.2827 78.0159 59.0645 70.0508 58.1409C62.0856 57.2175 64.866 28.3715 62.6396 28.3715C60.4132 28.3715 62.8226 53.0567 60.9723 55.9236C59.1222 58.7905 51.6958 61.1042 43.9288 59.6226C36.1619 58.1409 38.0018 30.2235 34.83 30.2235C31.6582 30.2235 38.19 63.5042 26.0414 63.5042C13.8979 63.5042 17.2527 37.6164 14.4774 37.6164C11.702 37.6164 14.4774 52.595 13.7657 56.847C13.1303 60.6425 6.2327 61.6217 1.26645 55.8728C4.07739 68.7153 13.0084 66.0666 16.8816 64.0572L17.212 63.9711V63.9659C19.2707 70.3846 22.6967 70.9884 28.5524 70.9884C34.3421 70.9884 38.5001 69.2735 40.1723 65.3664C40.1673 65.3562 40.1621 65.3359 40.1571 65.3258C42.5512 68.5276 46.577 69.4206 52.2599 69.4206Z" fill="url(#paint10_linear_29_179)"/>
<path d="M47.8479 69.1773C49.9166 69.2788 52.0006 69.2128 54.0238 69.0149C56.0366 68.7814 58.0191 68.1573 59.4169 66.8331C60.835 65.5088 61.4959 63.5552 61.8974 61.6017C62.3194 59.633 62.4719 57.5831 62.5531 55.5332C62.7158 51.4384 62.604 47.2675 62.6955 43.1372C62.7819 39.0018 62.8733 34.8614 63.0564 30.7311L63.5037 55.5585C63.468 57.6389 63.3614 59.7344 62.9648 61.8249C62.5531 63.88 61.75 66.0415 60.0828 67.5587C58.4205 69.1062 56.1484 69.5781 54.0745 69.6797C51.9651 69.7608 49.8912 69.5629 47.8479 69.1773Z" fill="#975500"/>
<path d="M35.2163 31.7004C35.4959 34.6432 35.7297 37.576 36.0855 40.4937C36.4362 43.4112 36.7768 46.3287 37.2089 49.2464C37.5443 52.1639 37.9713 55.1069 38.1442 58.0499C38.3831 60.9167 38.9778 63.88 40.8738 66.1887C38.6119 64.1793 37.702 61.0587 37.2953 58.1462C36.9446 55.2135 36.5328 52.3213 36.111 49.3935C35.7704 46.4658 35.4095 43.528 35.2417 40.5748C35.0588 37.6115 35.0384 34.6484 35.2163 31.7004Z" fill="#975500"/>
<path d="M63.0559 30.7308L63.5286 56.2839L63.6202 59.4806C63.6863 60.5359 63.5745 61.6572 63.7879 62.5655C64.2047 64.4936 66.0041 65.7622 67.9052 66.4371C69.8367 67.1321 71.9411 67.4113 74.0354 67.5179C76.1348 67.5787 78.2696 67.6801 80.2267 67.1423C82.1886 66.6501 83.8255 65.3766 84.8015 63.6007C85.3758 62.7685 85.6351 61.7385 86.0315 60.7896C86.2603 59.7697 86.5907 58.7803 86.7432 57.735C87.4904 53.5896 87.7038 49.3324 87.9122 45.0905C88.1206 40.8435 88.2121 36.5812 88.3138 32.3242L88.6849 19.5476C88.8069 28.072 88.9848 36.5863 88.7662 45.1209C88.6899 49.3882 88.451 53.6657 87.7343 57.9177C87.5818 58.9832 87.2514 60.0285 87.0177 61.0889C86.6059 62.1089 86.3466 63.1846 85.7163 64.1283C84.6693 66.1021 82.7122 67.665 80.5112 68.2079C78.3153 68.7813 76.1144 68.6442 73.9693 68.5681C71.8142 68.4362 69.6335 68.1418 67.5494 67.3756C65.5264 66.6501 63.3507 65.1584 62.8475 62.7685C62.6035 61.5811 62.7357 60.5511 62.69 59.4856L62.6748 56.294C62.6594 47.7747 62.873 39.2452 63.0559 30.7308Z" fill="#975500"/>
<path d="M14.4722 38.9116C14.7874 41.1087 14.9805 43.3057 15.194 45.5028L15.7786 52.0839C15.9616 54.2758 16.18 56.4577 16.4343 58.6396C16.7036 60.8163 17.0392 62.9779 17.6085 65.1191C16.602 63.1302 16.0378 60.9482 15.5905 58.7715C15.133 56.5896 14.8839 54.3824 14.6755 52.1803C14.3145 47.7607 14.2079 43.3362 14.4722 38.9116Z" fill="#975500"/>
<path d="M88.8631 46.6787C88.8631 39.0068 88.6851 19.5528 88.6851 19.5528C88.3751 58.5115 88.9342 68.1268 76.5214 68.1268C64.1084 68.1268 63.1834 63.5044 63.1834 61.4697L63.0562 53.3309C63.0562 64.7931 61.15 69.4207 52.2548 69.4207C51.1618 69.4207 50.1553 69.3699 49.1846 69.2989C49.1794 69.3039 49.1744 69.3193 49.1692 69.3243C48.5136 69.8165 47.9188 70.3441 47.375 70.882C61.5618 72.7493 61.9735 65.3969 63.2291 66.6503C66.3298 69.7455 77.1668 73.4902 83.3733 69.4207C90.8251 64.5394 88.8631 54.3508 88.8631 46.6787Z" fill="url(#paint11_linear_29_179)"/>
<path d="M93.9361 71.6395C99.6801 61.6539 97.4537 52.967 95.4203 48.8977C94.7697 47.5986 94.1293 46.1779 93.5448 44.6658C93.5346 44.9296 93.5854 45.219 93.7531 45.5741C96.1625 50.567 97.601 58.518 93.7531 68.8692C89.9053 79.2253 81.4369 83.386 75.6015 81.0723C69.7661 78.7585 57.9123 79.4993 53.0987 79.4993C49.693 79.4993 46.2315 77.8704 44.4726 75.6785C44.371 76.12 44.2999 76.5614 44.2999 76.9978C44.2999 81.0671 48.5595 82.3611 51.5229 82.3611C67.4686 82.3611 73.0091 83.655 80.4202 84.208C87.8212 84.7661 88.1923 81.6203 93.9361 71.6395Z" fill="url(#paint12_radial_29_179)"/>
<path d="M0.595215 51.2709C2.14046 69.2786 12.5964 66.2798 16.8813 64.0575L17.2119 63.9713C16.6069 62.0888 16.124 59.6786 15.7275 56.6645C14.838 63.4131 3.27908 61.3328 0.595215 51.2709Z" fill="url(#paint13_linear_29_179)"/>
<path d="M16.7747 62.4756C18.7825 70.3049 22.2644 70.9899 28.5521 70.9899C34.3418 70.9899 38.4998 69.2748 40.172 65.3679C40.167 65.3578 40.1618 65.3374 40.1568 65.3221C38.8048 63.5108 37.966 60.9737 37.656 57.4219C37.5288 55.9453 37.3052 54.1796 37.0459 52.2311C36.9748 52.4391 37.0307 53.0633 37.2543 54.2607C39.1961 64.4647 22.0458 69.7823 16.7747 62.4756Z" fill="url(#paint14_linear_29_179)"/>
<path d="M47.8477 61.2368C43.0645 61.2368 38.6422 59.3694 37.4477 55.4422C37.529 56.1373 37.6052 56.8122 37.6561 57.421C38.5151 67.2597 43.3695 69.4212 52.2598 69.4212C59.8742 69.4212 62.3599 66.0114 62.9191 57.837L62.98 55.8278C60.9163 60.5467 53.3729 61.2368 47.8477 61.2368Z" fill="url(#paint15_linear_29_179)"/>
<path d="M75.4997 3.44432C81.6249 6.01688 84.4917 20.4576 84.4917 35.1724C84.4917 51.3993 83.104 60.5477 74.6305 60.5477C66.1571 60.5477 64.2102 58.6044 63.2394 54.5858C63.1987 54.4182 63.1428 54.3168 63.0767 54.2458C63.1428 57.8889 63.1937 60.7203 63.1937 61.4713C63.1937 63.5059 64.1188 68.1283 76.5316 68.1283C88.9394 68.1283 88.3854 58.5182 88.6954 19.5544C87.7398 16.6673 86.5403 13.6584 85.0509 10.624C82.8652 6.17928 79.1392 4.11407 75.4997 3.44432Z" fill="url(#paint16_linear_29_179)"/>
<path opacity="0.75" d="M6.82724 36.0796C10.0144 35.6585 12.2356 40.5803 13.298 46.1719C14.1672 50.7436 12.1797 56.2693 9.05881 56.6043C5.9327 56.9442 3.09123 56.6906 2.03904 47.0752C1.41891 41.4124 3.71132 36.4957 6.82724 36.0796Z" fill="url(#paint17_radial_29_179)"/>
<path opacity="0.75" d="M9.6837 20.9438C13.5774 20.5278 15.885 22.8365 16.734 25.5511C17.4303 27.7736 14.594 30.6556 10.7816 31.026C6.9694 31.3965 3.5433 31.4573 3.01979 26.7334C2.71481 23.9528 5.87648 21.3497 9.6837 20.9438Z" fill="url(#paint18_radial_29_179)"/>
<path opacity="0.75" d="M25.167 14.9514C28.9335 13.8858 31.5971 15.7734 32.8933 18.3103C33.9507 20.3857 31.6428 23.699 27.9526 24.7087C24.2623 25.7185 20.8921 26.3528 19.5808 21.781C18.808 19.0867 21.487 15.9966 25.167 14.9514Z" fill="url(#paint19_radial_29_179)"/>
<path opacity="0.75" d="M47.0803 4.41324C52.5242 2.87586 56.5043 6.08255 58.5273 10.2738C60.1794 13.6988 56.9821 18.9707 51.6499 20.4168C46.3178 21.8629 41.433 22.7205 39.2828 15.226C38.0172 10.8066 41.7633 5.91514 47.0803 4.41324Z" fill="url(#paint20_radial_29_179)"/>
<path opacity="0.75" d="M75.1285 7.58322C79.3627 7.99929 81.279 11.2011 81.5535 14.5449C81.7771 17.2747 78.1021 19.9487 73.9645 19.4971C69.8268 19.0456 66.1721 18.325 66.7109 12.7385C67.0311 9.45055 70.9909 7.1773 75.1285 7.58322Z" fill="url(#paint21_radial_29_179)"/>
<path opacity="0.75" d="M23.6676 35.5427C27.2309 35.02 29.7165 40.6268 30.911 47.0202C31.887 52.2464 29.6707 58.589 26.1787 59.0152C22.6865 59.4414 19.5045 59.1878 18.3253 48.1923C17.6238 41.7077 20.1856 36.05 23.6676 35.5427Z" fill="url(#paint22_radial_29_179)"/>
<path opacity="0.75" d="M48.9404 30.4121C54.5624 29.6307 58.2884 36.6837 59.9505 44.7818C61.3127 51.3983 57.6224 59.5474 52.1174 60.207C46.6124 60.8666 41.6208 60.6434 40.1214 46.6896C39.2369 38.4596 43.4458 31.1783 48.9404 30.4121Z" fill="url(#paint23_radial_29_179)"/>
<path opacity="0.75" d="M74.9002 29.621C79.2665 29.2558 81.8283 36.5675 82.7536 44.7671C83.5109 51.4699 80.3034 59.3247 76.0337 59.5732C71.7587 59.8219 67.9211 59.2384 67.3823 45.2035C67.062 36.9328 70.6304 29.9763 74.9002 29.621Z" fill="url(#paint24_radial_29_179)"/>
<path d="M87.0892 15.2101C86.4794 13.698 85.7982 12.1656 85.0409 10.6233C80.7811 1.93135 70.5947 2.30178 66.7011 4.51907C65.4303 5.24462 64.1952 5.65054 62.9192 5.78246C60.2913 6.06161 57.4753 5.03659 53.7341 2.29663C48.1784 -1.77268 42.1396 2.12407 39.9184 5.08238C38.4899 6.98504 37.1226 8.65449 34.82 10.0042C33.539 10.7552 31.9582 11.1864 29.8436 10.9885C23.9167 10.4354 19.8401 12.0997 17.2477 15.4283C16.7547 16.0625 16.2668 16.5243 15.7787 16.92C13.6946 18.5945 11.5598 18.3864 8.63196 18.3864C6.62415 18.3864 4.30616 19.8833 2.63898 25.201C6.08536 18.8178 11.5343 21.6389 16.038 20.6039C20.8619 19.4926 21.3955 8.71529 34.82 12.8406C37.5293 13.6727 40.7977 2.85478 47.2685 2.85478C53.7391 2.85478 57.8158 8.31954 62.8124 8.31954C67.8092 8.31954 77.467 0.9318 87.0892 15.2101Z" fill="url(#paint25_linear_29_179)"/>
</g>
<defs>
<linearGradient id="paint0_linear_29_179" x1="62.8179" y1="68.4007" x2="62.8179" y2="55.9615" gradientUnits="userSpaceOnUse">
<stop offset="0.00132565" stop-color="#FFCB4B"/>
<stop offset="1" stop-color="#FFD748"/>
</linearGradient>
<linearGradient id="paint1_linear_29_179" x1="35.1636" y1="4.61386" x2="63.8481" y2="101.872" gradientUnits="userSpaceOnUse">
<stop offset="0.00132565" stop-color="#FFCB4B"/>
<stop offset="1" stop-color="#FFD748"/>
</linearGradient>
<radialGradient id="paint2_radial_29_179" cx="0" cy="0" r="1" gradientUnits="userSpaceOnUse" gradientTransform="translate(54.7604 12.009) scale(119.523 119.311)">
<stop offset="0.365" stop-color="#FFBC47" stop-opacity="0"/>
<stop offset="1" stop-color="#FF8900"/>
</radialGradient>
<linearGradient id="paint3_linear_29_179" x1="88.6705" y1="94.167" x2="87.7477" y2="25.9391" gradientUnits="userSpaceOnUse">
<stop stop-color="#FFBC47" stop-opacity="0"/>
<stop offset="1" stop-color="#C86F34"/>
</linearGradient>
<linearGradient id="paint4_linear_29_179" x1="84.9016" y1="94.2183" x2="83.9786" y2="25.9893" gradientUnits="userSpaceOnUse">
<stop stop-color="#FFBC47" stop-opacity="0"/>
<stop offset="1" stop-color="#C86F34"/>
</linearGradient>
<linearGradient id="paint5_linear_29_179" x1="69.1424" y1="94.18" x2="68.2226" y2="26.1805" gradientUnits="userSpaceOnUse">
<stop stop-color="#FFBC47" stop-opacity="0"/>
<stop offset="1" stop-color="#C86F34"/>
</linearGradient>
<linearGradient id="paint6_linear_29_179" x1="75.7526" y1="68.1235" x2="75.7526" y2="20.9669" gradientUnits="userSpaceOnUse">
<stop offset="0.00132565" stop-color="#FFCB4B"/>
<stop offset="1" stop-color="#FFD748"/>
</linearGradient>
<linearGradient id="paint7_linear_29_179" x1="48.9411" y1="68.176" x2="48.9411" y2="21.1466" gradientUnits="userSpaceOnUse">
<stop offset="0.00132565" stop-color="#FFCB4B"/>
<stop offset="1" stop-color="#FFD748"/>
</linearGradient>
<linearGradient id="paint8_linear_29_179" x1="8.80316" y1="68.1717" x2="8.80316" y2="21.0151" gradientUnits="userSpaceOnUse">
<stop offset="0.00132565" stop-color="#FFCB4B"/>
<stop offset="1" stop-color="#FFD748"/>
</linearGradient>
<linearGradient id="paint9_linear_29_179" x1="27.2879" y1="68.1726" x2="27.2879" y2="21.0159" gradientUnits="userSpaceOnUse">
<stop offset="0.00132565" stop-color="#FFCB4B"/>
<stop offset="1" stop-color="#FFD748"/>
</linearGradient>
<linearGradient id="paint10_linear_29_179" x1="64.6638" y1="106.795" x2="-6.23038" y2="-142.516" gradientUnits="userSpaceOnUse">
<stop stop-color="#FFBC47" stop-opacity="0"/>
<stop offset="1" stop-color="#C86F34"/>
</linearGradient>
<linearGradient id="paint11_linear_29_179" x1="74.5546" y1="16.6263" x2="61.9027" y2="112.511" gradientUnits="userSpaceOnUse">
<stop stop-color="#FFBC47" stop-opacity="0"/>
<stop offset="1" stop-color="#C86F34"/>
</linearGradient>
<radialGradient id="paint12_radial_29_179" cx="0" cy="0" r="1" gradientUnits="userSpaceOnUse" gradientTransform="translate(52.8156 39.1904) scale(84.9183 84.7676)">
<stop stop-color="#FFBC47" stop-opacity="0"/>
<stop offset="1" stop-color="#FFA754"/>
</radialGradient>
<linearGradient id="paint13_linear_29_179" x1="8.70168" y1="49.9054" x2="9.44002" y2="78.38" gradientUnits="userSpaceOnUse">
<stop stop-color="#FFBC47" stop-opacity="0"/>
<stop offset="1" stop-color="#C86F34"/>
</linearGradient>
<linearGradient id="paint14_linear_29_179" x1="27.6597" y1="55.6849" x2="30.6129" y2="85.6397" gradientUnits="userSpaceOnUse">
<stop stop-color="#FFBC47" stop-opacity="0"/>
<stop offset="1" stop-color="#C86F34"/>
</linearGradient>
<linearGradient id="paint15_linear_29_179" x1="50.0512" y1="49.5896" x2="51.0202" y2="86.1998" gradientUnits="userSpaceOnUse">
<stop stop-color="#FFBC47" stop-opacity="0"/>
<stop offset="1" stop-color="#C86F34"/>
</linearGradient>
<linearGradient id="paint16_linear_29_179" x1="70.8074" y1="10.9247" x2="94.6194" y2="149.891" gradientUnits="userSpaceOnUse">
<stop stop-color="#FFBC47" stop-opacity="0"/>
<stop offset="1" stop-color="#C86F34"/>
</linearGradient>
<radialGradient id="paint17_radial_29_179" cx="0" cy="0" r="1" gradientUnits="userSpaceOnUse" gradientTransform="translate(7.65966 46.3977) rotate(-96.2001) scale(10.5966 5.74861)">
<stop stop-color="#FBE07A"/>
<stop offset="0.2654" stop-color="#FCDF73" stop-opacity="0.7346"/>
<stop offset="0.6548" stop-color="#FDDB5F" stop-opacity="0.3452"/>
<stop offset="1" stop-color="#FFD748" stop-opacity="0"/>
</radialGradient>
<radialGradient id="paint18_radial_29_179" cx="0" cy="0" r="1" gradientUnits="userSpaceOnUse" gradientTransform="translate(9.88877 26.0269) rotate(-96.2322) scale(5.2066 7.00384)">
<stop stop-color="#FBE07A"/>
<stop offset="0.2654" stop-color="#FCDF73" stop-opacity="0.7346"/>
<stop offset="0.6548" stop-color="#FDDB5F" stop-opacity="0.3452"/>
<stop offset="1" stop-color="#FFD748" stop-opacity="0"/>
</radialGradient>
<radialGradient id="paint19_radial_29_179" cx="0" cy="0" r="1" gradientUnits="userSpaceOnUse" gradientTransform="translate(26.2168 19.9149) rotate(-105.931) scale(5.20768 7.00392)">
<stop stop-color="#FBE07A"/>
<stop offset="0.2654" stop-color="#FCDF73" stop-opacity="0.7346"/>
<stop offset="0.6548" stop-color="#FDDB5F" stop-opacity="0.3452"/>
<stop offset="1" stop-color="#FFD748" stop-opacity="0"/>
</radialGradient>
<radialGradient id="paint20_radial_29_179" cx="0" cy="0" r="1" gradientUnits="userSpaceOnUse" gradientTransform="translate(48.8782 12.5258) rotate(-105.922) scale(8.5428 10.1129)">
<stop stop-color="#FBE07A"/>
<stop offset="0.2654" stop-color="#FCDF73" stop-opacity="0.7346"/>
<stop offset="0.6548" stop-color="#FDDB5F" stop-opacity="0.3452"/>
<stop offset="1" stop-color="#FFD748" stop-opacity="0"/>
</radialGradient>
<radialGradient id="paint21_radial_29_179" cx="0" cy="0" r="1" gradientUnits="userSpaceOnUse" gradientTransform="translate(74.1754 13.4916) rotate(-84.4329) scale(6.14453 7.60896)">
<stop stop-color="#FBE07A"/>
<stop offset="0.2654" stop-color="#FCDF73" stop-opacity="0.7346"/>
<stop offset="0.6548" stop-color="#FDDB5F" stop-opacity="0.3452"/>
<stop offset="1" stop-color="#FFD748" stop-opacity="0"/>
</radialGradient>
<radialGradient id="paint22_radial_29_179" cx="0" cy="0" r="1" gradientUnits="userSpaceOnUse" gradientTransform="translate(24.6229 47.3036) rotate(-96.1037) scale(12.1155 6.43417)">
<stop stop-color="#FBE07A"/>
<stop offset="0.2654" stop-color="#FCDF73" stop-opacity="0.7346"/>
<stop offset="0.6548" stop-color="#FDDB5F" stop-opacity="0.3452"/>
<stop offset="1" stop-color="#FFD748" stop-opacity="0"/>
</radialGradient>
<radialGradient id="paint23_radial_29_179" cx="0" cy="0" r="1" gradientUnits="userSpaceOnUse" gradientTransform="translate(50.0533 45.3556) rotate(-96.0802) scale(15.3779 10.1419)">
<stop stop-color="#FBE07A"/>
<stop offset="0.2654" stop-color="#FCDF73" stop-opacity="0.7346"/>
<stop offset="0.6548" stop-color="#FDDB5F" stop-opacity="0.3452"/>
<stop offset="1" stop-color="#FFD748" stop-opacity="0"/>
</radialGradient>
<radialGradient id="paint24_radial_29_179" cx="0" cy="0" r="1" gradientUnits="userSpaceOnUse" gradientTransform="translate(75.0749 44.6331) rotate(-92.1626) scale(15.3851 7.82746)">
<stop stop-color="#FBE07A"/>
<stop offset="0.2654" stop-color="#FCDF73" stop-opacity="0.7346"/>
<stop offset="0.6548" stop-color="#FDDB5F" stop-opacity="0.3452"/>
<stop offset="1" stop-color="#FFD748" stop-opacity="0"/>
</radialGradient>
<linearGradient id="paint25_linear_29_179" x1="45.9409" y1="24.2397" x2="28.3328" y2="-42.2157" gradientUnits="userSpaceOnUse">
<stop stop-color="#FFBC47" stop-opacity="0"/>
<stop offset="1" stop-color="#C86F34"/>
</linearGradient>
<clipPath id="clip0_29_179">
<rect width="98" height="85" fill="white"/>
</clipPath>
</defs>
</svg>
