<svg width="495" height="457" viewBox="0 0 495 457" fill="none" xmlns="http://www.w3.org/2000/svg">
<g clip-path="url(#clip0_28_134)">
<path d="M128 72.6V339.8C115.2 323.8 94.4 312.6 72 312.6C49.6 312.6 29.6 323 16 339.8V72.6C16 41.4 40.8 16.6 72 16.6C103.2 16.6 128 41.4 128 72.6Z" fill="#E4C6A1"/>
<path d="M424 328.6C392.8 328.6 368 353.4 368 384.6H366.4H352V112.6H328V96.6H352V80.6H144V96.6H168V112.6H144V384.6H137.6H128C128 353.4 103.2 328.6 72 328.6C40.8 328.6 16 353.4 16 384.6C16 395 19.2 404.6 24 413.4V408.6H40V424.6H32.8C43.2 434.2 56.8 440.6 72 440.6H137.6H333.6H424C440 440.6 453.6 434.2 464 423.8V408.6H474.4C477.6 401.4 480 393.4 480 384.6C480 353.4 455.2 328.6 424 328.6ZM105.6 424.6H72.8V408.6H105.6V424.6ZM264 96.6H296V112.6H264V96.6ZM292.8 222.2L278.4 230.2C275.2 223.8 270.4 218.2 265.6 213.4L276.8 201.4C283.2 207.8 288.8 215 292.8 222.2ZM200 96.6H232V112.6H200V96.6ZM170.4 424.6H137.6V408.6H170.4V424.6ZM180 191L171.2 177.4L188.8 165.4L177.6 147.8L191.2 139L203.2 156.6L220.8 145.4L229.6 159L212 171L223.2 188.6L209.6 197.4L197.6 179.8L180 191ZM236 424.6H203.2V408.6H236V424.6ZM227.2 193.4L231.2 177.4C240 179.8 248 182.2 255.2 186.2L248 200.6C242.4 198.2 235.2 195 227.2 193.4ZM300.8 424.6H268V408.6H300.8V424.6ZM326.4 337.4L301.6 362.2C300 363.8 298.4 364.6 296 364.6C293.6 364.6 292 363.8 290.4 362.2L265.6 337.4C257.6 329.4 252.8 318.2 252.8 307C252.8 295.8 257.6 284.6 265.6 276.6C272 269.4 280 265.4 288 264.6C288 260.6 287.2 255.8 286.4 251L302.4 247.8C304 254.2 304 260.6 304.8 264.6C312.8 266.2 320.8 270.2 327.2 276.6C335.2 284.6 340 295.8 340 307C340 318.2 334.4 328.6 326.4 337.4ZM366.4 424.6H333.6V408.6H366.4V424.6ZM431.2 424.6H398.4V408.6H431.2V424.6Z" fill="#FFF8EF"/>
<path d="M281.6 306.2C281.6 314.2 288 320.6 296 320.6C304 320.6 310.4 314.2 310.4 306.2C310.4 298.2 304 291.8 296 291.8C288 291.8 281.6 298.2 281.6 306.2ZM323.2 306.2C323.2 313.4 320.8 320.6 315.2 325.4L296 344.6L276.8 325.4C272 320.6 268.8 313.4 268.8 306.2C268.8 299 271.2 291.8 276.8 287C281.6 282.2 288.8 279 296 279C303.2 279 310.4 282.2 315.2 287C320 292.6 323.2 299 323.2 306.2Z" fill="#EE5656"/>
<path d="M480 72.6V339.8C466.4 323.8 446.4 312.6 424 312.6C401.6 312.6 381.6 323 368 339.8V72.6C368 41.4 392.8 16.6 424 16.6C455.2 16.6 480 41.4 480 72.6Z" fill="#E4C6A1"/>
<path d="M431.2 408.6H398.4V424.6H431.2V408.6Z" fill="#42210B"/>
<path d="M366.4 408.6H333.6V424.6H366.4V408.6Z" fill="#42210B"/>
<path d="M300.8 408.6H268V424.6H300.8V408.6Z" fill="#42210B"/>
<path d="M296 96.6H264V112.6H296V96.6Z" fill="#42210B"/>
<path d="M296 320.6C288 320.6 281.6 314.2 281.6 306.2C281.6 298.2 288 291.8 296 291.8C304 291.8 310.4 298.2 310.4 306.2C310.4 314.2 304 320.6 296 320.6ZM297.6 306.2C297.6 305.4 296.8 304.6 296 304.6C295.2 304.6 294.4 305.4 294.4 306.2C294.4 307.8 297.6 307.8 297.6 306.2Z" fill="#42210B"/>
<path d="M292.8 222.2L278.4 230.2C275.2 223.8 270.4 218.2 265.6 213.4L276.8 201.4C283.2 207.8 288.8 215 292.8 222.2Z" fill="#42210B"/>
<path d="M315.2 325.4C320 320.6 323.2 313.4 323.2 306.2C323.2 299 320.8 291.8 315.2 287C310.4 282.2 303.2 279 296 279C288.8 279 281.6 282.2 276.8 287C272 291.8 268.8 299 268.8 306.2C268.8 313.4 271.2 320.6 276.8 325.4L296 344.6L315.2 325.4ZM265.6 275.8C272 270.2 280 265.4 288 264.6C288 260.6 287.2 255.8 286.4 251L302.4 247.8C304 254.2 304 260.6 304.8 264.6C312.8 266.2 320.8 270.2 327.2 276.6C335.2 284.6 340 295.8 340 307C340 318.2 335.2 329.4 327.2 337.4L302.4 362.2C300.8 363.8 299.2 364.6 296.8 364.6C294.4 364.6 292.8 363.8 291.2 362.2L266.4 337.4C258.4 329.4 253.6 318.2 253.6 307C252.8 295 257.6 284.6 265.6 275.8Z" fill="#42210B"/>
<path d="M227.2 193.4L231.2 177.4C240 179.8 248 182.2 255.2 186.2L248 200.6C242.4 198.2 235.2 195.8 227.2 193.4Z" fill="#42210B"/>
<path d="M236 408.6H203.2V424.6H236V408.6Z" fill="#42210B"/>
<path d="M232 96.6H200V112.6H232V96.6Z" fill="#42210B"/>
<path d="M211.2 171L222.4 188.6L209.6 196.6L197.6 179.8L180 191L172 178.2L188.8 166.2L177.6 148.6L190.4 140.6L202.4 157.4L220 146.2L228 159L211.2 171Z" fill="#42210B"/>
<path d="M170.4 408.6H137.6V424.6H170.4V408.6Z" fill="#42210B"/>
<path d="M105.6 408.6H72.8V424.6H105.6V408.6Z" fill="#42210B"/>
<path d="M72 328.6C40.8 328.6 16 353.4 16 384.6C16 395 19.2 404.6 24 413.4V408.6H40V424.6H32.8C43.2 434.2 56.8 440.6 72 440.6H137.6H333.6H424C440 440.6 453.6 434.2 464 423.8V408.6H474.4C477.6 401.4 480 393.4 480 384.6C480 353.4 455.2 328.6 424 328.6C392.8 328.6 368 353.4 368 384.6H366.4H352V112.6H328V96.6H352V80.6H144V96.6H168V112.6H144V384.6H137.6H128C128 353.4 103.2 328.6 72 328.6ZM424 312.6C446.4 312.6 466.4 323 480 339.8V72.6C480 41.4 455.2 16.6 424 16.6C392.8 16.6 368 41.4 368 72.6V339.8C381.6 323 401.6 312.6 424 312.6ZM72 16.6C40.8 16.6 16 41.4 16 72.6V339.8C29.6 323.8 49.6 312.6 72 312.6C94.4 312.6 115.2 323 128 339.8V72.6C128 41.4 103.2 16.6 72 16.6ZM0 72.6C0 32.6 32 0.600006 72 0.600006C108.8 0.600006 139.2 28.6 143.2 64.6H352C356 28.6 386.4 0.600006 423.2 0.600006C463.2 0.600006 495.2 32.6 495.2 72.6V384.6C495.2 424.6 463.2 456.6 423.2 456.6H72C32 456.6 0 424.6 0 384.6V72.6Z" fill="#42210B"/>
<path d="M49.6 418.2C30.4 400.6 29.6 369.4 48.8 351.8C71.2 331.8 105.6 345.4 116 351C104.8 335.8 85.6 326.2 64 329.4C41.6 332.6 22.4 348.6 16.8 371C12.8 387 16 401.4 23.2 413.4V408.6H39.2V424.6H32.8C43.2 434.2 56.8 440.6 72 440.6H128C86.4 440.6 63.2 430.2 49.6 418.2Z" fill="#D9CDC1"/>
<path d="M464 424.6C453.6 434.2 439.2 440.6 424 440.6H368C409.6 440.6 432.8 430.2 446.4 418.2C465.6 400.6 466.4 369.4 447.2 351.8C424.8 331.8 390.4 345.4 380 351C391.2 335.8 410.4 326.2 432 329.4C454.4 332.6 473.6 348.6 479.2 371C483.2 387 480 401.4 472.8 413.4V408.6H464.8V424.6H464Z" fill="#D9CDC1"/>
</g>
<defs>
<clipPath id="clip0_28_134">
<rect width="495" height="457" fill="white"/>
</clipPath>
</defs>
</svg>
