<svg width="143" height="126" viewBox="0 0 143 126" fill="none" xmlns="http://www.w3.org/2000/svg">
<path d="M105.688 121.969C107.527 121.969 109.292 121.238 110.593 119.937C111.894 118.636 112.625 116.871 112.625 115.031C112.625 108.094 105.688 98.8438 105.688 98.8438C105.688 98.8438 98.75 108.094 98.75 115.031C98.75 116.871 99.4809 118.636 100.782 119.937C102.083 121.238 103.848 121.969 105.688 121.969Z" fill="#EF4B4B"/>
<path d="M124.188 95.375C126.027 95.375 127.792 94.6441 129.093 93.343C130.394 92.042 131.125 90.2774 131.125 88.4375C131.125 81.5 124.188 72.25 124.188 72.25C124.188 72.25 117.25 81.5 117.25 88.4375C117.25 90.2774 117.981 92.042 119.282 93.343C120.583 94.6441 122.348 95.375 124.188 95.375Z" fill="#EF4B4B"/>
<path d="M68.6875 27.0406C68.0379 27.691 67.673 28.5727 67.673 29.4919C67.673 30.4111 68.0379 31.2927 68.6875 31.9431L87.4534 50.7553C91.264 54.5584 94.2755 59.085 96.3108 64.0691C98.3461 69.0531 99.3641 74.3939 99.305 79.7772C109.898 79.6718 120.027 75.4169 127.518 67.9262C135.009 60.4354 139.264 50.3061 139.369 39.7131C133.98 39.7769 128.633 38.7611 123.642 36.7257C118.652 34.6902 114.12 31.6763 110.312 27.8616L91.535 9.06094C90.8846 8.41136 90.003 8.04649 89.0837 8.04649C88.1645 8.04649 87.2829 8.41136 86.6325 9.06094L68.6875 27.0406Z" fill="#505D68"/>
<path d="M139.369 39.7131C139.264 50.3061 135.009 60.4354 127.518 67.9262C120.027 75.4169 109.898 79.6718 99.305 79.7772C99.3654 74.3937 98.348 69.0526 96.3126 64.0684C94.2772 59.0841 91.265 54.5576 87.4534 50.7553L80.25 43.4941L91.4078 32.3362C93.1412 30.6017 94.1149 28.2499 94.1149 25.7977C94.1149 23.3455 93.1412 20.9936 91.4078 19.2591L83.95 11.8012L86.6903 9.0725C87.3407 8.42292 88.2223 8.05805 89.1416 8.05805C90.0608 8.05805 90.9424 8.42292 91.5928 9.0725L110.312 27.8616C114.119 31.6774 118.651 34.692 123.642 36.7275C128.632 38.763 133.98 39.7782 139.369 39.7131Z" fill="#5A6A72"/>
<path d="M139.369 39.7131C139.264 50.3061 135.009 60.4354 127.518 67.9262C120.027 75.4169 109.898 79.6718 99.305 79.7772C99.3366 75.8928 98.8189 72.0235 97.7672 68.2841C105.078 66.5637 111.764 62.8391 117.074 57.5286C122.385 52.2181 126.109 45.5321 127.83 38.2216C131.585 39.2682 135.471 39.7705 139.369 39.7131Z" fill="#BACBCE"/>
<path d="M99.1778 76.6206L99.0622 74.3081C108.222 74.0514 116.935 70.2967 123.412 63.8154C129.889 57.3341 133.638 48.6183 133.888 39.4588L136.201 39.5744C135.911 49.2955 131.919 58.5388 125.042 65.4157C118.165 72.2926 108.922 76.284 99.2009 76.5744L99.1778 76.6206Z" fill="white"/>
<path d="M134.744 58.0975C131.348 64.5768 126.259 70.0145 120.019 73.832C113.778 77.6495 106.62 79.7041 99.305 79.7772C99.3241 77.7622 99.1927 75.7486 98.9119 73.7531C98.9119 73.7531 101.062 68.7812 109.156 67.625C118.406 66.3069 120.094 65.9369 124.187 61.8437C129.969 56.0625 134.744 58.0975 134.744 58.0975Z" fill="#EF4B4B"/>
<path d="M96.4375 10.6913L100.114 7.01438C100.92 6.20853 101.876 5.56927 102.928 5.13312C103.981 4.69697 105.109 4.47248 106.248 4.47248C107.388 4.47248 108.516 4.69697 109.568 5.13312C110.621 5.56927 111.577 6.20853 112.382 7.01438C113.188 7.81971 113.827 8.77593 114.263 9.82841C114.7 10.8809 114.924 12.009 114.924 13.1483C114.924 14.2876 114.7 15.4157 114.263 16.4681C113.827 17.5206 113.188 18.4769 112.382 19.2822L108.705 22.9591" fill="#A2542A"/>
<path d="M114.937 13.1425C114.94 14.2815 114.717 15.4097 114.28 16.4617C113.844 17.5136 113.202 18.4684 112.394 19.2706L108.717 22.9591L104.092 18.3341L107.769 14.6456C108.577 13.8434 109.219 12.8886 109.655 11.8367C110.092 10.7847 110.315 9.6565 110.312 8.5175C110.308 7.37209 110.072 6.23941 109.619 5.1875C110.651 5.62407 111.59 6.2562 112.382 7.04906C113.189 7.84619 113.83 8.79491 114.268 9.84066C114.707 10.8864 114.934 12.0085 114.937 13.1425Z" fill="#D3987F"/>
<path d="M81.9959 49.6684L19.1769 112.476C18.3715 113.282 17.4153 113.921 16.3628 114.357C15.3103 114.793 14.1822 115.018 13.043 115.018C11.9037 115.018 10.7756 114.793 9.7231 114.357C8.67061 113.921 7.71439 113.282 6.90906 112.476C6.10321 111.671 5.46395 110.714 5.0278 109.662C4.59165 108.609 4.36716 107.481 4.36716 106.342C4.36716 105.203 4.59165 104.075 5.0278 103.022C5.46395 101.97 6.10321 101.013 6.90906 100.208L69.3466 37.7706L81.9959 49.6684Z" fill="#A2542A"/>
<path d="M81.9959 49.6684L69.3234 37.8053L65.1841 41.9563L77.4403 54.2241L81.9959 49.6684Z" fill="#8C3E23"/>
<path d="M13.9737 107.273C12.8049 108.43 11.3304 109.231 9.72299 109.581C8.11557 109.931 6.44167 109.817 4.89719 109.25C5.39065 110.624 6.22347 111.851 7.31823 112.817C8.41299 113.783 9.73417 114.456 11.159 114.775C12.5838 115.093 14.0659 115.046 15.4677 114.638C16.8695 114.23 18.1454 113.474 19.1769 112.441L77.4403 54.2241L72.2372 49.0209L13.9737 107.273Z" fill="#D3987F"/>
<path d="M76.6194 44.6387L72.2372 49.0209L77.4403 54.2241L81.9959 49.6684L76.6194 44.6387Z" fill="#C38163"/>
<path d="M129.969 70.3769C138.12 62.262 142.744 51.261 142.838 39.7594C142.838 38.8394 142.472 37.9571 141.822 37.3066C141.171 36.6561 140.289 36.2906 139.369 36.2906C134.435 36.3705 129.536 35.4519 124.966 33.5901C120.395 31.7283 116.249 28.9617 112.775 25.4566L111.954 24.6356L114.822 21.7681C115.952 20.6422 116.848 19.3048 117.461 17.8323C118.074 16.3598 118.391 14.781 118.394 13.1861C118.396 11.5911 118.085 10.0113 117.477 8.53669C116.869 7.06213 115.977 5.72173 114.851 4.59203C113.725 3.46233 112.387 2.56546 110.915 1.95262C109.442 1.33978 107.864 1.02298 106.269 1.02029C104.674 1.01761 103.094 1.3291 101.619 1.93698C100.145 2.54486 98.8044 3.43722 97.6747 4.56313L94.8187 7.41906L93.9978 6.59813C92.697 5.29896 90.9338 4.56923 89.0953 4.56923C87.2569 4.56923 85.4936 5.29896 84.1928 6.59813L66.19 24.5894C64.8908 25.8902 64.1611 27.6534 64.1611 29.4919C64.1611 31.3303 64.8908 33.0936 66.19 34.3944L67.0109 35.2153L4.46937 97.7684C2.19245 100.045 0.913284 103.134 0.913284 106.354C0.913284 109.574 2.19245 112.662 4.46937 114.939C6.7463 117.216 9.83447 118.495 13.0545 118.495C16.2746 118.495 19.3628 117.216 21.6397 114.939L84.1812 52.3856L85.0022 53.2066C89.3559 57.54 92.5558 62.8943 94.31 68.7813C94.31 68.7813 94.31 68.8622 94.31 68.8969C95.3281 72.3972 95.8267 76.028 95.79 79.6731C95.79 80.5931 96.1555 81.4754 96.806 82.1259C97.4565 82.7764 98.3388 83.1419 99.2588 83.1419C107.56 83.0709 115.67 80.6364 122.638 76.1234C124.731 79.3378 127.656 84.6797 127.656 88.4375C127.656 89.3575 127.291 90.2398 126.64 90.8903C125.99 91.5408 125.107 91.9063 124.188 91.9063C123.268 91.9063 122.385 91.5408 121.735 90.8903C121.084 90.2398 120.719 89.3575 120.719 88.4375C120.722 87.9492 120.764 87.462 120.846 86.9806C120.922 86.5312 120.909 86.0712 120.807 85.6269C120.705 85.1826 120.516 84.7627 120.252 84.3912C119.988 84.0197 119.653 83.7039 119.267 83.4618C118.881 83.2196 118.451 83.0559 118.002 82.98C117.552 82.9041 117.092 82.9174 116.648 83.0193C116.204 83.1211 115.784 83.3095 115.412 83.5736C115.041 83.8378 114.725 84.1725 114.483 84.5586C114.241 84.9448 114.077 85.3749 114.001 85.8244C113.857 86.688 113.783 87.5619 113.781 88.4375C113.781 91.1974 114.878 93.8443 116.829 95.7958C118.781 97.7474 121.428 98.8438 124.188 98.8438C126.947 98.8438 129.594 97.7474 131.546 95.7958C133.497 93.8443 134.594 91.1974 134.594 88.4375C134.594 82.3209 130.454 75.3025 128.246 71.9956C128.812 71.4753 129.402 70.9319 129.969 70.3769ZM102.577 9.46563C103.054 8.95442 103.628 8.5444 104.266 8.26002C104.904 7.97564 105.593 7.82272 106.292 7.8104C106.991 7.79807 107.685 7.92658 108.333 8.18827C108.98 8.44996 109.569 8.83947 110.063 9.33355C110.557 9.82763 110.947 10.4162 111.208 11.064C111.47 11.7119 111.598 12.4059 111.586 13.1045C111.574 13.8031 111.421 14.4921 111.137 15.1304C110.852 15.7686 110.442 16.343 109.931 16.8194L107.075 19.6869L99.7212 12.3331L102.577 9.46563ZM16.7256 110.059C15.7393 110.978 14.4347 111.479 13.0867 111.455C11.7388 111.431 10.4527 110.885 9.49937 109.932C8.54607 108.979 8 107.692 7.97622 106.345C7.95244 104.997 8.45279 103.692 9.37187 102.706L71.9134 40.1294L79.2672 47.4831L16.7256 110.059ZM101.872 70.4463C112.497 66.9921 121.406 59.6202 126.789 49.8303C127.035 49.4303 127.198 48.9845 127.267 48.5198C127.336 48.0551 127.309 47.5813 127.189 47.1271C127.07 46.6728 126.859 46.2477 126.57 45.8774C126.281 45.5071 125.92 45.1993 125.508 44.9728C125.097 44.7462 124.643 44.6056 124.176 44.5595C123.708 44.5134 123.236 44.5627 122.789 44.7045C122.341 44.8462 121.926 45.0775 121.571 45.3842C121.215 45.6909 120.925 46.0667 120.719 46.4888C116.223 54.6933 108.787 60.8904 99.9063 63.8325C97.7015 58.0187 94.2842 52.741 89.8816 48.3503L86.6094 45.0897L74.3878 32.7872L71.0925 29.4687L89.0838 11.5122L92.3559 14.7844L104.612 27.0406L107.873 30.3013C115.305 37.7621 125.187 42.2801 135.692 43.02C134.839 51.4977 131.087 59.4213 125.068 65.4525C119.05 71.4838 111.134 75.2529 102.658 76.1234C102.519 74.216 102.257 72.3196 101.872 70.4463Z" fill="#31352E"/>
<path d="M105.688 95.375C105.149 95.375 104.618 95.5004 104.136 95.7412C103.655 95.982 103.236 96.3317 102.912 96.7625C102.126 97.8031 95.2812 107.169 95.2812 115.031C95.2812 117.791 96.3776 120.438 98.3292 122.39C100.281 124.341 102.928 125.438 105.688 125.438C108.447 125.438 111.094 124.341 113.046 122.39C114.997 120.438 116.094 117.791 116.094 115.031C116.094 107.169 109.249 97.8031 108.463 96.7625C108.139 96.3317 107.72 95.982 107.239 95.7412C106.757 95.5004 106.226 95.375 105.688 95.375ZM105.688 118.5C104.768 118.5 103.885 118.135 103.235 117.484C102.584 116.834 102.219 115.951 102.219 115.031C102.219 112.106 103.953 108.279 105.688 105.238C107.41 108.279 109.156 112.175 109.156 115.031C109.156 115.951 108.791 116.834 108.14 117.484C107.49 118.135 106.607 118.5 105.688 118.5Z" fill="#31352E"/>
</svg>
