<svg width="106" height="123" viewBox="0 0 106 123" fill="none" xmlns="http://www.w3.org/2000/svg">
<path d="M103.781 53.875C103.781 25.8722 81.0028 3.09375 53 3.09375C24.9972 3.09375 2.21875 25.8722 2.21875 53.875C2.21875 72.8469 12.6959 90.0963 29.5634 98.8956L30.6562 99.4684V120.906H75.3438V99.4684L76.4366 98.8956C93.3041 90.0963 103.781 72.8469 103.781 53.875Z" fill="#FFFAEE"/>
<path d="M83.4688 66.0625C83.4688 75.4956 80.0522 80.2812 73.3125 80.2812C66.5728 80.2812 63.1562 75.4956 63.1562 66.0625C63.1562 56.6294 66.5728 51.8438 73.3125 51.8438C80.0522 51.8438 83.4688 56.6294 83.4688 66.0625ZM32.6875 51.8438C25.9478 51.8438 22.5312 56.6294 22.5312 66.0625C22.5312 75.4956 25.9478 80.2812 32.6875 80.2812C39.4272 80.2812 42.8438 75.4956 42.8438 66.0625C42.8438 56.6294 39.4272 51.8438 32.6875 51.8438Z" fill="#3D3935"/>
<path d="M53 1.0625C23.8313 1.0625 0.1875 24.7063 0.1875 53.875C0.1875 74.2444 11.7372 91.8878 28.625 100.699V122.938H77.375V100.699C94.2628 91.8878 105.812 74.2444 105.812 53.875C105.812 24.7063 82.1687 1.0625 53 1.0625ZM75.4941 97.0959L73.3125 98.2334V118.875H32.6875V98.2334L30.5059 97.0959C14.3088 88.65 4.25 72.0872 4.25 53.875C4.25 26.9934 26.1184 5.125 53 5.125C79.8816 5.125 101.75 26.9934 101.75 53.875C101.75 72.0872 91.6913 88.65 75.4941 97.0959ZM44.875 66.0625C44.875 57.0884 41.6616 49.8125 32.6875 49.8125C23.7134 49.8125 20.5 57.0884 20.5 66.0625C20.5 75.0366 23.7134 82.3125 32.6875 82.3125C41.6616 82.3125 44.875 75.0366 44.875 66.0625ZM32.6875 78.25C30.6766 78.25 24.5625 78.25 24.5625 66.0625C24.5625 53.875 30.6766 53.875 32.6875 53.875C34.6984 53.875 40.8125 53.875 40.8125 66.0625C40.8125 78.25 34.6984 78.25 32.6875 78.25ZM73.3125 49.8125C64.3384 49.8125 61.125 57.0884 61.125 66.0625C61.125 75.0366 64.3384 82.3125 73.3125 82.3125C82.2866 82.3125 85.5 75.0366 85.5 66.0625C85.5 57.0884 82.2866 49.8125 73.3125 49.8125ZM73.3125 78.25C71.3016 78.25 65.1875 78.25 65.1875 66.0625C65.1875 53.875 71.3016 53.875 73.3125 53.875C75.3234 53.875 81.4375 53.875 81.4375 66.0625C81.4375 78.25 75.3234 78.25 73.3125 78.25ZM36.75 98.5625H40.8125V110.75H36.75V98.5625ZM44.875 98.5625H48.9375V110.75H44.875V98.5625ZM57.0625 98.5625H61.125V110.75H57.0625V98.5625ZM65.1875 98.5625H69.25V110.75H65.1875V98.5625Z" fill="#231F20"/>
</svg>
