<svg width="109" height="105" viewBox="0 0 109 105" fill="none" xmlns="http://www.w3.org/2000/svg">
<g clip-path="url(#clip0_29_165)">
<path d="M9.09054 101.679C8.22478 102.545 7.01271 103.065 5.80063 103.065C4.58856 103.065 3.37648 102.632 2.51072 101.766C1.64495 100.9 1.21207 99.7747 1.21207 98.4761C1.21207 97.264 1.73153 96.052 2.59729 95.1862L50.6473 46.357L48.4829 62.3736C48.3963 62.3736 48.3963 62.4602 48.3098 62.4602L9.09054 101.679Z" fill="#4BB19B"/>
<path d="M85.1048 46.1838L87.529 69.7326L68.4821 55.6207C68.309 55.5341 68.1358 55.5341 67.9627 55.6207L48.7427 69.4729L51.4265 45.9241C51.4265 45.7509 51.3399 45.5778 51.1668 45.4912L29.5226 35.7946L51.34 26.4443C51.5131 26.3577 51.5997 26.1846 51.5997 26.0114L49.1755 2.46259L68.2224 16.5746C68.3956 16.6612 68.5687 16.6612 68.7419 16.5746L87.9619 2.72232L85.278 26.2712C85.278 26.4443 85.3646 26.6175 85.5377 26.7041L107.182 36.4006L85.4512 45.8375C85.1914 45.8375 85.0183 46.0106 85.1048 46.1838ZM84.8451 35.7946L75.9277 31.8121L76.9666 22.0289C76.9666 21.8558 76.8801 21.6826 76.7935 21.596C76.6203 21.5095 76.4472 21.5095 76.3606 21.596L68.3956 27.3101L60.5171 21.5095C60.3439 21.3363 60.0842 21.4229 59.911 21.596C59.7379 21.7692 59.8245 22.0289 59.9976 22.2021L60.3439 22.4618L61.2963 31.5523H61.2097L51.946 35.6214C51.7728 35.708 51.6863 35.8812 51.6863 36.0543C51.6863 36.2275 51.7728 36.4006 51.946 36.4872L60.7768 40.3832L59.6513 50.1663C59.6513 50.3395 59.7379 50.5126 59.8245 50.5992C59.9976 50.6858 60.1708 50.6858 60.2573 50.5992L68.2224 44.8851L76.1009 50.6858C76.1875 50.7724 76.274 50.7724 76.3606 50.7724C76.4472 50.7724 76.5338 50.7724 76.5338 50.6858C76.7069 50.5992 76.7935 50.4261 76.7069 50.2529L75.668 40.4697L84.672 36.5738C84.8451 36.4872 84.9317 36.3141 84.9317 36.1409C85.1048 36.0543 85.0183 35.8812 84.8451 35.7946Z" fill="#FFC52F"/>
<path d="M68.6553 28.2624L76.1009 22.8947L75.062 31.9852C75.062 32.1584 75.1485 32.3315 75.3217 32.4181L83.633 36.1409L75.2351 39.7771C75.062 39.8637 74.9754 40.0369 74.9754 40.21L75.9277 49.3006L68.5687 43.8462C68.3956 43.7597 68.2224 43.7597 68.0492 43.8462L60.6037 49.214L61.6426 40.1234C61.6426 39.9503 61.556 39.7771 61.3828 39.6906L53.0715 35.9678L61.4694 32.3315C61.7291 32.245 61.8157 31.9852 61.7292 31.7255C61.6426 31.5523 61.4694 31.4658 61.2963 31.4658L60.3439 22.3752L68.1358 28.1759C68.2224 28.4356 68.4821 28.4356 68.6553 28.2624Z" fill="#EFDC81"/>
<path d="M5.88722 104.363C7.44559 104.363 8.9174 103.757 10.1295 102.632L49.2621 63.4125C49.6084 63.0662 49.6084 62.5468 49.2621 62.2005C48.9158 61.8542 48.3963 61.8542 48.05 62.2005L8.9174 101.42C7.27244 102.978 4.58856 103.065 2.94361 101.42C2.16442 100.641 1.73153 99.6016 1.73153 98.4761C1.73153 97.3506 2.16442 96.3117 2.94361 95.5325L45.5393 52.9368C45.8856 52.5905 45.8856 52.071 45.5393 51.7247C45.193 51.3784 44.6736 51.3784 44.3272 51.7247L1.73153 94.3204C0.606037 95.4459 4.6004e-07 96.9177 4.6004e-07 98.5627C4.6004e-07 100.121 0.606037 101.679 1.73153 102.805C2.85703 103.757 4.41541 104.363 5.88722 104.363Z" fill="black"/>
<path d="M88.0485 71.5507C88.2216 71.5507 88.3082 71.5507 88.4813 71.4642C88.7411 71.291 88.9142 70.9447 88.9142 70.5984L86.4035 46.7033L108.481 37.0932C108.827 36.9201 109 36.6604 109 36.3141C109 35.9678 108.827 35.6214 108.481 35.5349L86.5766 25.7517L89.2605 1.85656C89.2605 1.51025 89.1739 1.16394 88.8276 0.99079C88.5679 0.817637 88.135 0.817637 87.8753 1.07737L68.3956 15.1894L49.1755 0.817637C48.9158 0.644483 48.5695 0.557907 48.2232 0.73106C47.9635 0.904213 47.7903 1.25052 47.7903 1.59683L50.2145 25.492L28.1374 35.102C27.7911 35.2751 27.618 35.5349 27.618 35.8812C27.618 36.2275 27.7911 36.5738 28.1374 36.6604L50.0413 46.4435L47.3574 70.3387C47.3574 70.685 47.444 71.0313 47.7903 71.2044C48.05 71.3776 48.4829 71.3776 48.7427 71.2044L68.2224 57.179L87.529 71.4642C87.7021 71.4642 87.8753 71.5507 88.0485 71.5507ZM105.97 36.3141L85.1048 45.4046C84.7585 45.5778 84.5854 45.9241 84.5854 46.2704L87.0095 68.7803L68.7419 55.2743C68.4821 55.0146 68.0492 55.0146 67.7029 55.2743L49.2621 68.5206L51.7728 45.9241C51.7728 45.5778 51.5997 45.2315 51.2534 45.0583L30.5616 35.7946L51.4265 26.7041C51.7728 26.5309 51.946 26.1846 51.946 25.8383L49.6084 3.32836L67.7895 16.8343C68.1358 17.094 68.4821 17.094 68.8284 16.8343L87.2693 3.50151L84.7585 26.098C84.7585 26.4443 84.9317 26.7906 85.278 26.9638L105.97 36.3141Z" fill="black"/>
<path d="M76.3606 51.2052C76.5338 51.2052 76.6203 51.2052 76.7935 51.1187C77.0532 50.9455 77.2264 50.5992 77.2264 50.2529L76.274 40.7295L85.0183 37.0067C85.3646 36.8335 85.5377 36.5738 85.5377 36.2275C85.5377 35.8812 85.3646 35.5349 85.0183 35.4483L76.3606 31.5523L77.3995 22.1155C77.3995 21.7692 77.3129 21.4229 76.9666 21.2497C76.7069 21.0766 76.274 21.0766 76.0143 21.3363L68.3955 26.8772L60.7768 21.2497C60.4305 20.99 59.8245 21.0766 59.5647 21.4229C59.305 21.7692 59.3916 22.3752 59.7379 22.635L67.8761 28.6087C68.2224 28.8685 68.5687 28.8685 68.915 28.6087L75.4948 23.847L74.6291 31.9852C74.6291 32.3315 74.8022 32.6778 75.1485 32.851L82.5941 36.2275L75.062 39.4308C74.7156 39.604 74.5425 39.9503 74.5425 40.2966L75.4083 48.4348L68.915 43.5865C68.5687 43.3268 68.2224 43.3268 67.8761 43.5865L61.2097 48.3482L62.0755 40.21C62.0755 39.8637 61.9023 39.5174 61.556 39.3442L54.1104 35.9678L61.6426 32.7644C62.0755 32.5913 62.2486 32.0718 62.0755 31.6389C61.9023 31.206 61.3828 31.0329 60.95 31.206L51.5997 35.1886C51.2534 35.3617 51.0802 35.6214 51.0802 35.9678C51.0802 36.3141 51.2534 36.6604 51.5997 36.7469L60.2573 40.6429L59.2184 50.0797C59.2184 50.4261 59.305 50.7724 59.6513 50.9455C59.911 51.1187 60.3439 51.1187 60.6037 50.9455L68.309 45.4046L75.8411 51.1187C76.0143 51.1187 76.1874 51.2052 76.3606 51.2052Z" fill="black"/>
</g>
<defs>
<clipPath id="clip0_29_165">
<rect width="109" height="105" fill="white" transform="matrix(-1 0 0 1 109 0)"/>
</clipPath>
</defs>
</svg>
