<svg width="127" height="124" viewBox="0 0 127 124" fill="none" xmlns="http://www.w3.org/2000/svg">
<g clip-path="url(#clip0_26_89)">
<path d="M19.7564 81.6434C9.70828 84.3927 3.70312 88.8237 3.70312 93.3519C3.83235 94.926 4.48084 96.4126 5.54672 97.5781C8.51156 101.416 4.55484 104.338 4.46859 106.721C4.27453 109.955 9.54656 112.65 16.6945 112.65C20.3215 112.775 23.9173 111.942 27.12 110.235C29.7764 108.64 32.9173 108.051 35.9714 108.575C42.9239 109.586 49.929 110.195 56.9517 110.397C64.699 110.687 72.2391 112.979 78.8377 117.049C82.908 119.249 87.4843 120.342 92.1094 120.219C101.64 120.219 109.359 116.359 109.359 111.594C109.359 111.341 109.338 111.088 109.295 110.839C108.996 109.185 109.258 107.479 110.039 105.99C110.821 104.502 112.076 103.317 113.607 102.624C119.602 99.95 123.073 96.7695 123.073 93.3519C123.073 87.3683 112.561 81.4062 96.2817 79.0236C77.3606 76.2528 40.3594 76.0156 19.7564 81.6434Z" fill="#A52525"/>
<path d="M101.813 80.0155C83.3011 115.227 2.62501 88.0798 31.9931 80.0155C19.3252 79.595 -2.89499 88.0152 5.54673 97.5781C9.14767 101.664 4.46861 104.198 4.46861 106.721C4.46861 109.955 9.54657 112.65 16.6945 112.65C27.9394 112.65 27.4758 107.26 35.9714 108.575C57.232 111.755 64.3153 108.23 78.8377 117.049C89.565 123.572 110.815 119.205 109.349 110.818C109.05 109.163 109.312 107.457 110.093 105.969C110.874 104.481 112.13 103.296 113.661 102.602C132 94.4408 121.294 84.1663 101.813 80.0155Z" fill="#E02222"/>
<path d="M123.105 93.2656C123.105 96.403 120.302 99.6481 113.64 102.624C112.109 103.317 110.853 104.502 110.072 105.99C109.29 107.479 109.028 109.185 109.327 110.839C110.793 119.248 89.5434 123.593 78.8161 117.071C64.2937 108.252 57.2536 111.777 35.9498 108.597C27.4219 107.281 27.8855 112.672 16.6406 112.672C9.49266 112.672 4.41469 110.02 4.41469 106.742C4.41469 104.219 8.72719 101.352 5.49281 97.5997C4.40068 96.4133 3.76629 94.877 3.70312 93.2656H12.9211C14.3657 93.2705 15.7807 93.6763 17.0084 94.4376C18.2362 95.199 19.2285 96.2862 19.875 97.5781C20.5231 98.8733 21.5189 99.9627 22.7508 100.724C23.9827 101.486 25.4022 101.89 26.8505 101.891H94.2656C95.9394 101.891 97.5901 101.501 99.0871 100.752C100.584 100.004 101.886 98.9171 102.891 97.5781C103.895 96.2391 105.197 95.1523 106.694 94.4038C108.191 93.6553 109.842 93.2656 111.516 93.2656H123.105Z" fill="#E03F3F"/>
<path d="M93.1875 117.459C92.7586 117.459 92.3473 117.288 92.044 116.985C91.7407 116.682 91.5703 116.27 91.5703 115.842C91.5703 115.413 91.7407 115.001 92.044 114.698C92.3473 114.395 92.7586 114.224 93.1875 114.224C98.8908 114.224 102.19 112.596 103.311 111.82C103.052 108.804 103.735 105.783 105.266 103.172C106.798 100.561 109.102 98.4895 111.861 97.2439C112.055 97.1522 112.266 97.1003 112.481 97.0913C112.697 97.0823 112.911 97.1162 113.113 97.1913C113.315 97.2663 113.499 97.3808 113.656 97.5281C113.813 97.6755 113.939 97.8526 114.027 98.0493C114.114 98.2459 114.162 98.458 114.166 98.6732C114.171 98.8884 114.132 99.1023 114.053 99.3025C113.974 99.5026 113.855 99.6849 113.705 99.8386C113.554 99.9924 113.374 100.115 113.176 100.198C110.926 101.216 109.069 102.938 107.884 105.105C106.7 107.272 106.253 109.765 106.61 112.208C106.675 112.63 106.57 113.06 106.319 113.405C105.112 115.087 100.228 117.459 93.1875 117.459Z" fill="#FF8888"/>
<path d="M23.1094 108.92C22.7306 108.923 22.3628 108.793 22.0702 108.552C21.7775 108.312 21.5786 107.976 21.508 107.604C21.4374 107.232 21.4997 106.847 21.684 106.516C21.8683 106.185 22.1629 105.929 22.5164 105.793C22.8157 105.683 23.1044 105.546 23.3789 105.384C27.4504 102.91 32.2723 101.973 36.9741 102.742C42.6927 103.577 48.4502 104.121 54.2241 104.37C54.653 104.39 55.0564 104.58 55.3455 104.897C55.6346 105.215 55.7858 105.634 55.7658 106.063C55.7458 106.492 55.5562 106.895 55.2388 107.184C54.9213 107.474 54.502 107.625 54.0731 107.605C48.1874 107.35 42.3184 106.796 36.4889 105.944C32.5512 105.279 28.5054 106.044 25.0823 108.101C24.64 108.368 24.1746 108.596 23.6916 108.78C23.508 108.863 23.3105 108.91 23.1094 108.92Z" fill="#FFB3B3"/>
<path d="M106.61 47.9844C106.61 56.7269 104.018 65.2732 99.1606 72.5423C94.3035 79.8115 87.3999 85.4771 79.3228 88.8227C71.2458 92.1684 62.358 93.0437 53.7834 91.3382C45.2089 89.6326 37.3326 85.4226 31.1507 79.2407C24.9688 73.0588 20.7588 65.1825 19.0533 56.608C17.3477 48.0334 18.223 39.1456 21.5687 31.0686C24.9143 22.9915 30.5799 16.0879 37.8491 11.2308C45.1183 6.37372 53.6645 3.78125 62.407 3.78125C68.2139 3.77416 73.9651 4.91266 79.3312 7.13156C84.6974 9.35047 89.5731 12.6062 93.6792 16.7122C97.7852 20.8183 101.041 25.694 103.26 31.0602C105.479 36.4264 106.617 42.1775 106.61 47.9844Z" fill="#EFDADA"/>
<path d="M104.659 60.9219C97.6294 58.0109 79.8942 80.878 61.9219 81.1044C54.7739 81.1044 51.4317 76.7919 45.5236 80.2958C41.8903 82.452 34.1817 79.0344 32.0902 77.7837C31.79 77.6063 31.4391 77.5344 31.0933 77.5793C30.7476 77.6243 30.4268 77.7835 30.1819 78.0317C34.6006 82.8176 40.0365 86.5515 46.0893 88.9584C52.1421 91.3653 58.6576 92.384 65.1563 91.9395V105.125C69.3097 105.566 73.3376 106.811 77.0156 108.791V89.5569C83.5675 87.3244 89.4928 83.5623 94.3002 78.5824C99.1076 73.6025 102.659 67.5483 104.659 60.9219Z" fill="#E23737"/>
<path d="M98.6644 38.7341C98.6655 45.0452 97.0168 51.247 93.8817 56.7244C90.7467 62.2018 86.2342 66.7645 80.7919 69.96C75.3496 73.1556 69.1664 74.8729 62.8557 74.9417C56.5449 75.0105 50.3258 73.4284 44.8151 70.3523C39.3044 67.2762 34.6935 62.813 31.4398 57.4052C28.1861 51.9975 26.4025 45.8331 26.266 39.5235C26.1295 33.2138 27.6448 26.9781 30.6616 21.4347C33.6784 15.8913 38.0919 11.2328 43.4644 7.92125C49.4248 5.18945 55.9043 3.77532 62.4609 3.77532C69.0176 3.77532 75.4971 5.18945 81.4575 7.92125C86.7197 11.1588 91.0643 15.6909 94.0766 21.0852C97.0889 26.4794 98.6685 32.5557 98.6644 38.7341Z" fill="#F5E9E9"/>
<path d="M62.4609 65.1266C77.6147 65.1266 89.8992 52.842 89.8992 37.6883C89.8992 22.5345 77.6147 10.25 62.4609 10.25C47.3072 10.25 35.0226 22.5345 35.0226 37.6883C35.0226 52.842 47.3072 65.1266 62.4609 65.1266Z" fill="white"/>
<path d="M68.0456 18.4653C83.6137 23.9206 86.4276 41.7744 76.4873 51.7147C74.0133 54.1898 70.9286 55.9664 67.5462 56.8642C64.1638 57.762 60.604 57.7491 57.2282 56.8267C53.8524 55.9043 50.7807 54.1053 48.3248 51.6122C45.8689 49.1192 44.1162 46.0208 43.2445 42.6315C42.3729 39.2423 42.4134 35.6827 43.3619 32.3142C44.3103 28.9456 46.1331 25.8879 48.645 23.4513C51.157 21.0147 54.2689 19.2861 57.6648 18.4407C61.0607 17.5953 64.6198 17.6633 67.9809 18.6378" fill="#3C618E"/>
<path d="M70.2989 19.8453C81.7162 23.8452 83.7755 36.9336 76.4873 44.2217C74.6724 46.033 72.4109 47.3322 69.932 47.9877C67.4531 48.6433 64.8449 48.6318 62.3719 47.9545C59.8988 47.2772 57.6488 45.9581 55.8499 44.1309C54.0509 42.3038 52.767 40.0335 52.1283 37.5502C51.4895 35.0669 51.5187 32.4589 52.2127 29.9905C52.9067 27.5221 54.241 25.2811 56.0803 23.4946C57.9196 21.708 60.1985 20.4395 62.6861 19.8176C65.1736 19.1956 67.7813 19.2424 70.245 19.9531" fill="#3A6E99"/>
<path d="M78.6544 79.0559C78.2928 79.0602 77.9402 78.9432 77.6529 78.7235C77.3656 78.5038 77.1603 78.1942 77.0697 77.8441C76.979 77.4941 77.0084 77.1237 77.153 76.7922C77.2976 76.4608 77.5491 76.1873 77.8673 76.0156C82.2507 73.4625 86.4806 70.6545 90.5353 67.6063C97.2305 62.7547 101.651 59.5419 104.831 61.0189C105.203 61.2094 105.487 61.5364 105.623 61.9315C105.759 62.3265 105.737 62.7589 105.562 63.1381C105.386 63.5173 105.07 63.8137 104.681 63.9653C104.292 64.1169 103.859 64.112 103.473 63.9514C102.007 63.2722 96.7022 67.1319 92.4328 70.2153C88.2932 73.3416 83.9733 76.2216 79.4953 78.8403C79.2399 78.9875 78.9491 79.0621 78.6544 79.0559Z" fill="#FF8888"/>
<path d="M61.6631 84.3387C58.8194 84.3529 56 83.8147 53.3616 82.7539C52.9823 82.5815 52.6841 82.2693 52.5294 81.8824C52.3746 81.4955 52.3752 81.0639 52.5309 80.6774C52.6866 80.2909 52.9854 79.9795 53.3651 79.8079C53.7449 79.6364 54.1761 79.6181 54.5691 79.7567C58.6373 81.3366 63.1071 81.5597 67.3125 80.3928C67.7328 80.2899 68.1768 80.3581 68.5468 80.5826C68.9168 80.807 69.1825 81.1692 69.2855 81.5895C69.3884 82.0099 69.3202 82.4539 69.0957 82.8239C68.8713 83.1939 68.5091 83.4596 68.0887 83.5625C65.9853 84.0755 63.8282 84.336 61.6631 84.3387Z" fill="#FF8888"/>
<path d="M65.1562 105.125H70.5469V90.3008C70.5471 89.9687 70.4707 89.6411 70.3235 89.3435C70.1763 89.0458 69.9624 88.7862 69.6984 88.5848C69.4344 88.3834 69.1275 88.2457 68.8015 88.1824C68.4756 88.1192 68.1394 88.132 67.8192 88.22L65.1562 88.9531V105.125Z" fill="#FF8888"/>
<path d="M78.0938 111.055C77.7885 111.056 77.4894 110.97 77.2313 110.807C76.897 110.602 76.5736 110.397 76.2286 110.214C72.7509 108.351 68.9484 107.173 65.0269 106.742C64.598 106.709 64.1997 106.507 63.9197 106.181C63.6396 105.854 63.5008 105.43 63.5337 105.001C63.5666 104.572 63.7685 104.174 64.095 103.894C64.4215 103.614 64.8459 103.475 65.2748 103.508C69.6644 103.963 73.9213 105.278 77.8027 107.378C78.1908 107.594 78.5681 107.831 78.9563 108.068C79.2534 108.255 79.4818 108.533 79.6068 108.861C79.7318 109.189 79.7468 109.549 79.6494 109.886C79.552 110.223 79.3476 110.52 79.0669 110.731C78.7863 110.941 78.4447 111.055 78.0938 111.055Z" fill="#FFB3B3"/>
<path d="M70.7733 35.6183C70.7711 37.2618 70.2818 38.8679 69.3671 40.2334C68.4525 41.599 67.1535 42.6627 65.6345 43.2902C64.1154 43.9177 62.4444 44.0808 60.8327 43.7588C59.2209 43.4369 57.7408 42.6443 56.5794 41.4814C55.418 40.3185 54.6274 38.8373 54.3075 37.2252C53.9877 35.6131 54.1529 33.9423 54.7824 32.424C55.4118 30.9058 56.4772 29.6082 57.844 28.6953C59.2107 27.7824 60.8174 27.2952 62.4609 27.2952C63.2798 27.2952 64.0939 27.4188 64.8759 27.6617C64.4017 27.813 63.9787 28.0927 63.6537 28.4697C63.3287 28.8468 63.1145 29.3064 63.0348 29.7978C62.9551 30.2891 63.013 30.7929 63.202 31.2533C63.3911 31.7138 63.704 32.1129 64.106 32.4064C64.5081 32.6999 64.9835 32.8763 65.4797 32.9161C65.9758 32.956 66.4733 32.8576 66.917 32.632C67.3607 32.4064 67.7332 32.0623 67.9933 31.6379C68.2534 31.2135 68.391 30.7254 68.3906 30.2277C68.407 30.0664 68.407 29.9038 68.3906 29.7425C69.932 31.308 70.7889 33.4214 70.7733 35.6183Z" fill="#31352E"/>
<path d="M66.4608 27.5755C67.041 27.7383 67.5516 28.0873 67.9141 28.5687C68.2766 29.0501 68.4709 29.6373 68.467 30.24C68.4632 30.8426 68.2614 31.4273 67.8928 31.904C67.5242 32.3808 67.0092 32.7232 66.4269 32.8786C65.8447 33.034 65.2275 32.9938 64.6703 32.7642C64.1131 32.5346 63.6468 32.1282 63.3432 31.6077C63.0395 31.0872 62.9153 30.4813 62.9897 29.8832C63.064 29.2852 63.3328 28.7282 63.7547 28.2978C64.1003 27.9469 64.5335 27.6949 65.0093 27.5679C65.4851 27.4409 65.9863 27.4435 66.4608 27.5755Z" fill="white"/>
<path d="M67.0861 21.7428C67.4999 21.8816 67.9375 21.9353 68.3726 21.9005C68.8077 21.8657 69.2313 21.7432 69.6177 21.5404C70.0042 21.3376 70.3457 21.0586 70.6215 20.7203C70.8973 20.3821 71.1018 19.9915 71.2227 19.5721C71.3436 19.1527 71.3783 18.7131 71.3248 18.28C71.2713 17.8468 71.1307 17.4289 70.9114 17.0515C70.6921 16.6741 70.3987 16.345 70.0489 16.084C69.6991 15.823 69.3 15.6355 68.8758 15.5328C65.7118 14.6431 62.3942 14.4397 59.1451 14.9361C55.8961 15.4326 52.7906 16.6175 50.0367 18.4116C47.2828 20.2056 44.9439 22.5673 43.1768 25.3386C41.4097 28.1099 40.2551 31.2267 39.7902 34.4804C39.3254 37.7341 39.5612 41.0496 40.4816 44.2048C41.4021 47.36 42.9861 50.2822 45.1276 52.7755C47.269 55.2689 49.9185 57.2759 52.8985 58.6623C55.8786 60.0486 59.1205 60.7823 62.407 60.8141C82.7944 60.8141 93.2845 36.0172 78.7191 21.4302C78.1059 20.8588 77.295 20.5478 76.4571 20.5626C75.6191 20.5774 74.8197 20.9168 74.2271 21.5094C73.6345 22.102 73.295 22.9015 73.2803 23.7394C73.2655 24.5773 73.5765 25.3883 74.1478 26.0014C77.0044 28.8581 78.7206 32.6588 78.9745 36.6906C79.2285 40.7225 78.0028 44.7085 75.5272 47.901C73.0517 51.0936 69.4965 53.2733 65.5284 54.0313C61.5603 54.7894 57.452 54.0737 53.974 52.0185C50.496 49.9633 47.8872 46.7098 46.6371 42.8683C45.387 39.0267 45.5813 34.861 47.1836 31.1525C48.786 27.4441 51.6863 24.4476 55.3405 22.7251C58.9948 21.0026 63.1519 20.6725 67.0322 21.7967L67.0861 21.7428Z" fill="#31352E"/>
<path d="M100.228 76.5224C104.499 70.8667 107.448 64.3259 108.86 57.3806C110.271 50.4353 110.108 43.262 108.383 36.3879C106.658 29.5138 103.415 23.1136 98.8917 17.6575C94.3683 12.2015 88.6799 7.8283 82.2445 4.85938C50.8819 -9.60906 15.0773 13.4844 15.0773 47.9844C15.1103 60.4411 20.0418 72.385 28.8065 81.2365C37.5713 90.0881 49.4661 95.1368 61.9219 95.2925V97.5781C61.9219 101.891 68.3906 101.826 68.3906 97.5781C68.3906 93.3303 69.1453 88.6405 65.0269 88.7806C39.6478 89.8156 21.5461 70.1614 21.5461 47.9844C21.5461 18.2928 52.4559 -1.70641 79.5384 10.7998C86.6432 14.0806 92.6621 19.3241 96.8854 25.9123C101.109 32.5004 103.361 40.1587 103.376 47.9844C103.376 77.9347 75.9591 86.2039 74.7839 87.3252C73.2853 88.7052 73.7812 90.0313 73.7812 100.813C73.7812 105.125 80.25 105.125 80.25 100.813V91.8425C85.8592 89.586 90.9832 86.2737 95.3438 82.0855C95.4776 82.134 95.6144 82.1736 95.7534 82.2041C113.478 85.5786 119.914 90.7213 119.914 93.3519C119.914 94.775 117.93 97.19 112.367 99.6805C110.17 100.657 108.363 102.339 107.232 104.461C106.101 106.582 105.711 109.021 106.125 111.389C106.131 111.457 106.131 111.526 106.125 111.594C106.125 115.906 89.4572 119.777 80.4656 114.311C65.1239 104.985 57.3183 108.532 36.4027 105.405C26.5702 103.918 25.7292 109.987 16.8347 109.448C8.95359 108.995 7.86469 107.066 7.85391 107.044C7.16391 105.718 13.0289 101.653 8.03719 95.7345C7.70151 95.4343 7.43222 95.0673 7.24657 94.657C7.06092 94.2468 6.96299 93.8022 6.95906 93.3519C6.95906 91.1956 11.2177 87.6594 20.7267 84.7269C24.8128 83.4655 22.883 77.277 18.8292 78.5492C3.70313 83.2067 0.46875 89.1688 0.46875 93.3519C0.46875 97.535 2.87297 99.4649 3.59531 100.543C3.43904 101.022 3.21387 101.476 2.92687 101.891C-0.857344 108.004 1.4175 115.022 16.4466 115.906C27.6267 116.542 28.1334 110.699 35.4323 111.799C56.6391 114.968 63.3989 111.508 77.0911 119.841C89.5758 127.388 114.588 122.537 112.475 110.3C112.302 109.35 112.452 108.37 112.901 107.516C113.351 106.662 114.074 105.983 114.955 105.589C132.755 97.5781 131.332 83.3685 100.228 76.5224Z" fill="#31352E"/>
</g>
<defs>
<clipPath id="clip0_26_89">
<rect width="127" height="124" fill="white"/>
</clipPath>
</defs>
</svg>
