<svg width="63" height="63" viewBox="0 0 63 63" fill="none" xmlns="http://www.w3.org/2000/svg">
<g clip-path="url(#clip0_24_16)">
<path d="M32.5469 61.8594V52.4375C32.5469 41.4704 41.4704 32.5469 52.4375 32.5469H61.8594V38.8281H52.4375C44.9335 38.8281 38.8281 44.9335 38.8281 52.4375V61.8594H32.5469Z" fill="#8D3E93"/>
<path d="M26.2656 61.8594V52.4375C26.2656 38.0053 38.0053 26.2656 52.4375 26.2656H61.8594V32.5469H52.4375C41.4704 32.5469 32.5469 41.4704 32.5469 52.4375V61.8594H26.2656Z" fill="#248EBC"/>
<path d="M19.9844 61.8594V52.4375C19.9844 34.5422 34.5422 19.9844 52.4375 19.9844H61.8594V26.2656H52.4375C38.0053 26.2656 26.2656 38.0053 26.2656 52.4375V61.8594H19.9844Z" fill="#6F9B45"/>
<path d="M13.7031 61.8594V52.4375C13.7031 31.0792 31.0792 13.7031 52.4375 13.7031H61.8594V19.9844H52.4375C34.5422 19.9844 19.9844 34.5422 19.9844 52.4375V61.8594H13.7031Z" fill="#EAD13F"/>
<path d="M7.42188 61.8594V52.4375C7.42188 27.6161 27.6161 7.42188 52.4375 7.42188H61.8594V13.7031H52.4375C31.0792 13.7031 13.7031 31.0792 13.7031 52.4375V61.8594H7.42188Z" fill="#D1712A"/>
<path d="M1.14062 61.8594V52.4375C1.14062 24.153 24.153 1.14062 52.4375 1.14062H61.8594V7.42188H52.4375C27.6161 7.42188 7.42188 27.6161 7.42188 52.4375V61.8594H1.14062Z" fill="#CC4121"/>
<path d="M52.4375 0.09375C23.5752 0.09375 0.09375 23.5752 0.09375 52.4375V62.9062H39.875V52.4375C39.875 45.5093 45.5093 39.875 52.4375 39.875H62.9062V0.09375H52.4375ZM60.8125 37.7812H52.4375C44.3556 37.7812 37.7812 44.3556 37.7812 52.4375V60.8125H33.5938V52.4375C33.5938 42.0483 42.0483 33.5938 52.4375 33.5938H60.8125V37.7812ZM60.8125 31.5H52.4375C40.8926 31.5 31.5 40.8926 31.5 52.4375V60.8125H27.3125V52.4375C27.3125 38.5832 38.5832 27.3125 52.4375 27.3125H60.8125V31.5ZM60.8125 25.2188H52.4375C37.4295 25.2188 25.2188 37.4295 25.2188 52.4375V60.8125H21.0312V52.4375C21.0312 35.1201 35.1201 21.0312 52.4375 21.0312H60.8125V25.2188ZM60.8125 18.9375H52.4375C33.9664 18.9375 18.9375 33.9664 18.9375 52.4375V60.8125H14.75V52.4375C14.75 31.657 31.657 14.75 52.4375 14.75H60.8125V18.9375ZM60.8125 12.6562H52.4375C30.5013 12.6562 12.6562 30.5013 12.6562 52.4375V60.8125H8.46875V52.4375C8.46875 28.1919 28.1919 8.46875 52.4375 8.46875H60.8125V12.6562ZM52.4375 6.375C27.0382 6.375 6.375 27.0382 6.375 52.4375V60.8125H2.1875V52.4375C2.1875 24.7309 24.7309 2.1875 52.4375 2.1875H60.8125V6.375H52.4375Z" fill="#231F20"/>
</g>
<defs>
<clipPath id="clip0_24_16">
<rect width="63" height="63" fill="white"/>
</clipPath>
</defs>
</svg>
