<svg width="116" height="100" viewBox="0 0 116 100" fill="none" xmlns="http://www.w3.org/2000/svg">
<g clip-path="url(#clip0_24_10)">
<path d="M58 97.1776C65.3301 93.2919 113.688 66.3969 113.688 33.5C113.688 16.439 99.811 2.5625 82.75 2.5625C73.8936 2.5625 65.4374 6.39875 59.5469 13.0854L58 14.8467L56.4531 13.0895C50.5626 6.39875 42.1064 2.5625 33.25 2.5625C16.189 2.5625 2.3125 16.439 2.3125 33.5C2.3125 66.3969 50.6699 93.2919 58 97.1776Z" fill="#D36781"/>
<path d="M82.75 0.5C72.8789 0.5 64.0472 4.856 58 11.7241C51.9528 4.856 43.1211 0.5 33.25 0.5C15.0257 0.5 0.25 15.2757 0.25 33.5C0.25 70.625 58 99.5 58 99.5C58 99.5 115.75 70.625 115.75 33.5C115.75 15.2757 100.974 0.5 82.75 0.5ZM58 94.8346C48.364 89.6041 4.375 64.0498 4.375 33.5C4.375 17.5775 17.3275 4.625 33.25 4.625C41.5124 4.625 49.4076 8.2055 54.9062 14.4507L58 17.9653L61.0938 14.4507C66.5924 8.2055 74.4876 4.625 82.75 4.625C98.6725 4.625 111.625 17.5775 111.625 33.5C111.625 64.0498 67.636 89.6041 58 94.8346Z" fill="#231F20"/>
<path d="M25 33.5C29.5563 33.5 33.25 29.8063 33.25 25.25C33.25 20.6937 29.5563 17 25 17C20.4437 17 16.75 20.6937 16.75 25.25C16.75 29.8063 20.4437 33.5 25 33.5Z" fill="#E598A3"/>
</g>
<defs>
<clipPath id="clip0_24_10">
<rect width="116" height="100" fill="white"/>
</clipPath>
</defs>
</svg>
