<svg width="197" height="185" viewBox="0 0 197 185" fill="none" xmlns="http://www.w3.org/2000/svg">
<g clip-path="url(#clip0_30_217)">
<path d="M53.3508 62.0577H166.011C170.128 62.0577 173.466 65.3956 173.466 69.5129V155.249C173.466 159.366 170.128 162.704 166.011 162.704H30.9883C26.8705 162.704 23.5327 159.366 23.5327 155.249V69.5129C23.5327 65.3956 26.8705 62.0577 30.9883 62.0577H42.9037" fill="#90C8EC"/>
<path d="M63.7072 106.376C68.7396 106.376 72.8192 102.296 72.8192 97.2638C72.8192 92.2314 68.7396 88.1518 63.7072 88.1518C58.6748 88.1518 54.5952 92.2314 54.5952 97.2638C54.5952 102.296 58.6748 106.376 63.7072 106.376Z" fill="#CAE9F7"/>
<path d="M133.291 106.376C138.323 106.376 142.403 102.296 142.403 97.2638C142.403 92.2314 138.323 88.1518 133.291 88.1518C128.258 88.1518 124.178 92.2314 124.178 97.2638C124.178 102.296 128.258 106.376 133.291 106.376Z" fill="#CAE9F7"/>
<path d="M98.4989 33.0656C106.734 33.0656 113.41 26.3898 113.41 18.1548C113.41 9.9198 106.734 3.244 98.4989 3.244C90.2638 3.244 83.588 9.9198 83.588 18.1548C83.588 26.3898 90.2638 33.0656 98.4989 33.0656Z" fill="#578CAD"/>
<path d="M104.755 181.756H77.169C73.0516 181.756 69.7134 178.418 69.7134 174.301V170.16C69.7134 166.042 73.0516 162.704 77.169 162.704H119.829C123.947 162.704 127.285 166.042 127.285 170.16V174.301C127.285 178.419 123.948 181.756 119.829 181.756H115.203" fill="#578CAD"/>
<path d="M125.836 48.8041H71.164C67.0458 48.8041 63.7087 52.1416 63.7087 56.2593V62.0573H133.291V56.2593C133.291 52.1416 129.953 48.8041 125.836 48.8041Z" fill="#578CAD"/>
<path d="M23.5338 88.1548C12.2571 88.2195 3.13431 98.854 3.13431 111.967C3.13431 125.08 12.2571 135.714 23.5338 135.779V88.1548Z" fill="#578CAD"/>
<path d="M173.466 88.1548C184.742 88.2195 193.866 98.8544 193.866 111.967C193.866 125.08 184.742 135.715 173.466 135.78V88.1548Z" fill="#578CAD"/>
<path d="M119.209 135.782C119.209 139.9 115.871 143.237 111.753 143.237H85.2456C81.1278 143.237 77.79 139.9 77.79 135.782V129.569C77.79 125.452 81.1278 122.114 85.2456 122.114H111.753C115.871 122.114 119.209 125.452 119.209 129.569V135.782Z" fill="#CAE9F7"/>
<g opacity="0.2">
<path d="M33.4184 155.249V69.5129C33.4184 65.3956 36.7559 62.0577 40.874 62.0577H30.9883C26.8705 62.0577 23.5327 65.3956 23.5327 69.5129V155.249C23.5327 159.366 26.8705 162.704 30.9883 162.704H40.874C36.7559 162.704 33.4184 159.366 33.4184 155.249Z" fill="#231F20"/>
</g>
<g opacity="0.2">
<path d="M64.4821 97.2634C64.4821 94.0537 66.1431 91.2337 68.6514 89.6104C67.2274 88.6885 65.5313 88.1514 63.7091 88.1514C58.676 88.1514 54.5963 92.2311 54.5963 97.2634C54.5963 102.296 58.676 106.375 63.7091 106.375C65.5313 106.375 67.2274 105.838 68.6514 104.916C66.1435 103.293 64.4821 100.473 64.4821 97.2634Z" fill="#231F20"/>
</g>
<g opacity="0.2">
<path d="M134.065 97.2634C134.065 94.0537 135.726 91.2337 138.234 89.61C136.81 88.6881 135.114 88.151 133.292 88.151C128.259 88.151 124.179 92.2307 124.179 97.263C124.179 102.296 128.259 106.375 133.292 106.375C135.114 106.375 136.81 105.838 138.234 104.916C135.726 103.293 134.065 100.473 134.065 97.2634Z" fill="#231F20"/>
</g>
<g opacity="0.2">
<path d="M93.4753 18.1548C93.4753 11.653 97.6377 6.12627 103.443 4.08701C101.896 3.54334 100.233 3.24438 98.5004 3.24438C90.2649 3.24438 83.5896 9.91968 83.5896 18.1548C83.5896 26.3896 90.2649 33.0653 98.5004 33.0653C100.233 33.0653 101.896 32.7663 103.443 32.2226C97.6377 30.1834 93.4753 24.6562 93.4753 18.1548Z" fill="#231F20"/>
</g>
<g opacity="0.2">
<path d="M79.5992 174.301V170.16C79.5992 166.042 82.9374 162.704 87.0548 162.704H77.1694C73.052 162.704 69.7138 166.042 69.7138 170.16V174.301C69.7138 178.419 73.052 181.756 77.1694 181.756H87.0548C82.9374 181.756 79.5992 178.418 79.5992 174.301Z" fill="#231F20"/>
</g>
<g opacity="0.2">
<path d="M81.0497 48.8041H71.1643C67.0462 48.8041 63.7091 52.1416 63.7091 56.2593V62.0573H73.5949V56.2593C73.5949 52.1416 76.9316 48.8041 81.0497 48.8041Z" fill="#231F20"/>
</g>
<g opacity="0.2">
<path d="M13.0201 111.967C13.0201 102.213 17.0767 93.5631 23.336 88.1614C12.1513 88.3492 3.13431 98.931 3.13431 111.967C3.13431 125.003 12.1513 135.585 23.336 135.772C17.0771 130.371 13.0201 121.721 13.0201 111.967Z" fill="#231F20"/>
</g>
<g opacity="0.2">
<path d="M87.6758 135.782V129.569C87.6758 125.452 91.014 122.114 95.1314 122.114H85.246C81.1282 122.114 77.7904 125.452 77.7904 129.569V135.782C77.7904 139.9 81.1282 143.237 85.246 143.237H95.1314C91.014 143.237 87.6758 139.9 87.6758 135.782Z" fill="#231F20"/>
</g>
<path d="M63.7087 85.0171C56.9561 85.0171 51.4616 90.5111 51.4616 97.2634C51.4616 104.016 56.9557 109.51 63.7087 109.51C70.461 109.51 75.9547 104.016 75.9547 97.2634C75.9547 90.5108 70.4614 85.0171 63.7087 85.0171ZM63.7087 103.241C60.4121 103.241 57.7302 100.559 57.7302 97.2634C57.7302 93.9671 60.4121 91.2861 63.7087 91.2861C67.0042 91.2861 69.6857 93.9679 69.6857 97.2634C69.6857 100.559 67.0042 103.241 63.7087 103.241Z" fill="#231F20"/>
<path d="M133.291 109.509C140.043 109.509 145.537 104.016 145.537 97.263C145.537 90.5104 140.043 85.0167 133.291 85.0167C126.538 85.0167 121.044 90.5108 121.044 97.263C121.044 104.015 126.538 109.509 133.291 109.509ZM133.291 91.2857C136.587 91.2857 139.268 93.9675 139.268 97.263C139.268 100.559 136.587 103.24 133.291 103.24C129.995 103.24 127.313 100.559 127.313 97.263C127.314 93.9675 129.995 91.2857 133.291 91.2857Z" fill="#231F20"/>
<path d="M197 111.967C197 98.3884 188.099 87.0917 176.6 85.2806V69.5129C176.6 63.6737 171.851 58.9234 166.011 58.9234H136.425V56.2593C136.425 50.4201 131.675 45.6698 125.835 45.6698H101.634V35.9218C110.095 34.4327 116.545 27.0356 116.545 18.1548C116.545 8.20478 108.45 0.110077 98.5 0.110077C88.55 0.110077 80.4545 8.20516 80.4545 18.1548C80.4545 27.0356 86.9051 34.4327 95.3653 35.9218V45.6698H71.1636C65.3244 45.6698 60.574 50.4201 60.574 56.2593V58.9234H53.3508C51.6194 58.9234 50.2165 60.3267 50.2165 62.0577C50.2165 63.7888 51.6194 65.192 53.3508 65.192H166.011C168.393 65.192 170.332 67.1305 170.332 69.5129V88.1541V135.779V155.248C170.332 157.631 168.393 159.569 166.011 159.569H30.9879C28.6054 159.569 26.6666 157.631 26.6666 155.248V135.803C26.6666 135.794 26.6677 135.787 26.6677 135.778V88.1548C26.6677 88.1464 26.6666 88.1391 26.6666 88.1306V69.5133C26.6666 67.1309 28.6054 65.1924 30.9879 65.1924H42.9033C44.6347 65.1924 46.0376 63.7892 46.0376 62.0581C46.0376 60.3271 44.6347 58.9238 42.9033 58.9238H30.9879C25.1483 58.9238 20.398 63.6741 20.398 69.5133V85.281C8.90078 87.0925 0 98.3888 0 111.967C0 125.545 8.90078 136.841 20.398 138.653V155.249C20.398 161.088 25.1483 165.838 30.9879 165.838H67.5041C66.9115 167.159 66.5787 168.62 66.5787 170.159V174.301C66.5787 180.14 71.329 184.89 77.1686 184.89H104.754C106.486 184.89 107.889 183.487 107.889 181.756C107.889 180.025 106.486 178.622 104.754 178.622H77.1686C74.7861 178.622 72.8473 176.683 72.8473 174.301V170.159C72.8473 167.777 74.7861 165.838 77.1686 165.838H119.829C122.211 165.838 124.15 167.777 124.15 170.159V174.301C124.15 176.683 122.211 178.622 119.829 178.622H115.202C113.471 178.622 112.068 180.025 112.068 181.756C112.068 183.487 113.471 184.89 115.202 184.89H119.829C125.668 184.89 130.419 180.14 130.419 174.301V170.159C130.419 168.62 130.086 167.158 129.493 165.838H166.011C171.85 165.838 176.6 161.088 176.6 155.249V138.653C188.098 136.842 197 125.546 197 111.967ZM86.7239 18.1548C86.7239 11.6611 92.0067 6.37868 98.5004 6.37868C104.994 6.37868 110.277 11.6615 110.277 18.1548C110.277 24.6481 104.994 29.931 98.5004 29.931C92.0063 29.931 86.7239 24.6485 86.7239 18.1548ZM66.843 56.2593C66.843 53.8768 68.7815 51.9384 71.1639 51.9384H98.4919C98.495 51.9384 98.4973 51.9388 98.5 51.9388C98.5027 51.9388 98.5054 51.9384 98.5081 51.9384H125.836C128.218 51.9384 130.157 53.8768 130.157 56.2593V58.9234H66.843V56.2593ZM6.2686 111.967C6.2686 101.902 12.3683 93.4658 20.398 91.65V132.283C12.3683 130.468 6.2686 122.032 6.2686 111.967ZM176.6 132.284V91.65C184.631 93.465 190.731 101.901 190.731 111.967C190.731 122.032 184.631 130.469 176.6 132.284Z" fill="#231F20"/>
<path d="M111.753 118.98H85.2456C79.406 118.98 74.6557 123.73 74.6557 129.569V135.782C74.6557 141.621 79.406 146.372 85.2456 146.372H111.753C117.593 146.372 122.343 141.621 122.343 135.782V129.569C122.343 123.73 117.593 118.98 111.753 118.98ZM116.075 135.782C116.075 138.165 114.136 140.103 111.753 140.103H85.2456C82.8631 140.103 80.9243 138.165 80.9243 135.782V129.569C80.9243 127.187 82.8631 125.249 85.2456 125.249H111.753C114.136 125.249 116.075 127.187 116.075 129.569V135.782Z" fill="#231F20"/>
</g>
<defs>
<clipPath id="clip0_30_217">
<rect width="197" height="185" fill="white"/>
</clipPath>
</defs>
</svg>
