<svg width="121" height="121" viewBox="0 0 121 121" fill="none" xmlns="http://www.w3.org/2000/svg">
<g clip-path="url(#clip0_29_172)">
<path d="M60.5 2.70312C28.6304 2.70312 2.70312 28.6304 2.70312 60.5C2.70312 71.9095 6.03822 82.9594 12.3531 92.451L13.0038 93.4314L3.11412 115.681L5.31469 117.886L27.5643 107.996L28.5448 108.647C38.0448 114.962 49.0905 118.297 60.5 118.297C92.3696 118.297 118.297 92.3696 118.297 60.5C118.297 28.6304 92.3696 2.70312 60.5 2.70312Z" fill="#FFFAEE"/>
<path d="M64.7812 90.4688H56.2188V81.9062H64.7812V90.4688ZM64.7812 68.6301C74.5382 66.6436 81.9062 57.9912 81.9062 47.6562C81.9062 35.8528 72.3034 26.25 60.5 26.25C48.6966 26.25 39.0938 35.8528 39.0938 47.6562H47.6562C47.6562 40.5751 53.4188 34.8125 60.5 34.8125C67.5812 34.8125 73.3438 40.5751 73.3438 47.6562C73.3438 54.7374 67.5812 60.5 60.5 60.5H56.2188V77.625H64.7812V68.6301Z" fill="#DBD2C1"/>
<path d="M60.5 0.5625C27.3974 0.5625 0.5625 27.3974 0.5625 60.5C0.5625 72.7572 4.25722 84.1411 10.5721 93.6369L0.5625 116.156L4.84375 120.438L27.3631 110.428C36.8589 116.743 48.2428 120.438 60.5 120.438C93.6026 120.438 120.438 93.6026 120.438 60.5C120.438 27.3974 93.6026 0.5625 60.5 0.5625ZM60.5 115.827C49.5785 115.827 39.0038 112.633 29.9147 106.588L27.8041 105.183L6.21803 114.778L15.8123 93.1916L14.4081 91.081C8.36722 81.9962 5.17341 71.4215 5.17341 60.5C5.17341 29.9918 29.9918 5.17341 60.5 5.17341C91.0082 5.17341 115.827 29.9918 115.827 60.5C115.827 91.0082 91.0082 115.827 60.5 115.827Z" fill="#231F20"/>
</g>
<defs>
<clipPath id="clip0_29_172">
<rect width="121" height="121" fill="white"/>
</clipPath>
</defs>
</svg>
