<svg width="77" height="74" viewBox="0 0 77 74" fill="none" xmlns="http://www.w3.org/2000/svg">
<g clip-path="url(#clip0_35_47)">
<path opacity="0.2" d="M39.5313 7.1875V55.6875H21.3438V19.3125H3.15625V7.1875C3.15625 6.78943 3.23465 6.39526 3.38698 6.02749C3.53932 5.65972 3.7626 5.32555 4.04407 5.04407C4.32555 4.76259 4.65972 4.53931 5.02749 4.38698C5.39526 4.23465 5.78943 4.15625 6.1875 4.15625H18.3125C18.7106 4.15625 19.1047 4.23465 19.4725 4.38698C19.8403 4.53931 20.1744 4.76259 20.4559 5.04407C20.7374 5.32555 20.9607 5.65972 21.113 6.02749C21.2654 6.39526 21.3438 6.78943 21.3438 7.1875C21.3437 6.78943 21.4222 6.39526 21.5745 6.02749C21.7268 5.65972 21.9501 5.32555 22.2316 5.04407C22.5131 4.76259 22.8472 4.53931 23.215 4.38698C23.5828 4.23465 23.9769 4.15625 24.375 4.15625H36.5C36.8981 4.15625 37.2922 4.23465 37.66 4.38698C38.0278 4.53931 38.362 4.76259 38.6434 5.04407C38.9249 5.32555 39.1482 5.65972 39.3005 6.02749C39.4529 6.39526 39.5313 6.78943 39.5313 7.1875ZM73.5903 63.889L70.4521 52.1772L52.8844 56.8844L56.0226 68.5963C56.1256 68.9808 56.3033 69.3412 56.5457 69.657C56.788 69.9729 57.0901 70.2378 57.4349 70.4369C57.7796 70.6359 58.1602 70.7651 58.5548 70.817C58.9495 70.869 59.3505 70.8427 59.735 70.7397L71.4469 67.6015C72.2234 67.3934 72.8855 66.8854 73.2875 66.1892C73.6894 65.4929 73.7983 64.6656 73.5903 63.889ZM57.8993 5.32979C57.7963 4.94528 57.6186 4.58483 57.3762 4.26901C57.1339 3.9532 56.8318 3.68821 56.487 3.48917C56.1423 3.29013 55.7617 3.16094 55.3671 3.10897C54.9724 3.05701 54.5714 3.08329 54.1869 3.18631L42.475 6.32451C41.6984 6.5326 41.0364 7.04065 40.6344 7.73689C40.2324 8.43312 40.1235 9.26052 40.3316 10.0371L43.4698 21.7489L61.0375 17.0416L57.8993 5.32979Z" fill="black"/>
<path d="M76.5183 63.1047L60.8273 4.54515C60.4098 2.99297 59.3935 1.66986 58.0014 0.866179C56.6094 0.0625024 54.9554 -0.156081 53.4024 0.2584L41.6904 3.39659C41.5618 3.43105 41.4389 3.47587 41.3144 3.518C40.7507 2.77501 40.0228 2.17241 39.1876 1.75729C38.3525 1.34217 37.4326 1.12577 36.5 1.125H24.375C23.3098 1.1253 22.2637 1.40837 21.3438 1.9453C20.4238 1.40837 19.3777 1.1253 18.3125 1.125H6.1875C4.58019 1.12684 3.03924 1.76615 1.9027 2.9027C0.766155 4.03924 0.126838 5.58019 0.125 7.1875V67.8125C0.126838 69.4198 0.766155 70.9608 1.9027 72.0973C3.03924 73.2339 4.58019 73.8732 6.1875 73.875H18.3125C19.3777 73.8747 20.4238 73.5916 21.3438 73.0547C22.2637 73.5916 23.3098 73.8747 24.375 73.875H36.5C38.1073 73.8732 39.6483 73.2339 40.7848 72.0973C41.9213 70.9608 42.5607 69.4198 42.5625 67.8125V30.0745L53.0945 69.3807C53.3002 70.1499 53.6555 70.8711 54.14 71.5029C54.6246 72.1348 55.2289 72.6649 55.9185 73.0631C56.608 73.4612 57.3693 73.7196 58.1588 73.8233C58.9483 73.9271 59.7504 73.8742 60.5195 73.6678L72.2315 70.5296C73.7836 70.1118 75.1065 69.0955 75.9102 67.7035C76.7138 66.3116 76.9325 64.6577 76.5183 63.1047ZM47.1823 23.8923L58.8951 20.7539L66.7424 50.0329L55.0277 53.172L47.1823 23.8923ZM54.9713 6.11406L57.3256 14.898L45.6132 18.0363L43.2596 9.25262L54.9713 6.11406ZM36.5 7.1875L36.5028 52.6563H24.375V7.1875H36.5ZM18.3125 7.1875V16.2813H6.1875V7.1875H18.3125ZM6.1875 67.8125V22.3438H18.3125V67.8125H6.1875ZM36.5 67.8125H24.375V58.7188H36.5031L36.5037 67.8125H36.5ZM70.6623 64.6736L58.9504 67.8118L56.5968 59.028L68.3119 55.8888L70.666 64.6725L70.6623 64.6736Z" fill="black"/>
</g>
<defs>
<clipPath id="clip0_35_47">
<rect width="77" height="74" fill="white"/>
</clipPath>
</defs>
</svg>
