<svg width="25" height="25" viewBox="0 0 25 25" fill="none" xmlns="http://www.w3.org/2000/svg">
<g clip-path="url(#clip0_7_175)">
<path fill-rule="evenodd" clip-rule="evenodd" d="M18.1691 16.5774C19.5553 14.8445 20.3842 12.6464 20.3842 10.2546C20.3842 4.66018 15.849 0.125 10.2546 0.125C4.66018 0.125 0.125 4.66018 0.125 10.2546C0.125 15.849 4.66018 20.3842 10.2546 20.3842C12.6464 20.3842 14.8445 19.5553 16.5774 18.1691L22.9536 24.5454C23.3932 24.9849 24.1058 24.9849 24.5454 24.5454C24.9849 24.1058 24.9849 23.3932 24.5454 22.9536L18.1691 16.5774ZM10.2546 18.1445C5.89715 18.1445 2.36473 14.6121 2.36473 10.2546C2.36473 5.89715 5.89715 2.36473 10.2546 2.36473C14.6121 2.36473 18.1445 5.89715 18.1445 10.2546C18.1445 14.6121 14.6121 18.1445 10.2546 18.1445Z" fill="black"/>
</g>
<defs>
<clipPath id="clip0_7_175">
<rect width="25" height="25" fill="white"/>
</clipPath>
</defs>
</svg>
