<svg width="124" height="124" viewBox="0 0 124 124" fill="none" xmlns="http://www.w3.org/2000/svg">
<g clip-path="url(#clip0_43_29)">
<path d="M52.7581 9.648C57.7169 4.20344 66.2831 4.20344 71.2419 9.648L75.8388 14.6955C78.3444 17.4471 81.9462 18.9391 85.6637 18.7653L92.4837 18.4466C99.8394 18.1028 105.897 24.1605 105.553 31.5165L105.235 38.3361C105.061 42.0537 106.553 45.6554 109.304 48.1614L114.352 52.7581C119.797 57.7169 119.797 66.2831 114.352 71.2419L109.304 75.8388C106.553 78.3444 105.061 81.9462 105.235 85.6637L105.553 92.4837C105.897 99.8394 99.8394 105.898 92.4837 105.553L85.6637 105.235C81.9462 105.061 78.3444 106.553 75.8388 109.304L71.2419 114.352C66.2831 119.797 57.7169 119.797 52.7581 114.352L48.1614 109.304C45.6554 106.553 42.0537 105.061 38.336 105.235L31.5165 105.553C24.1605 105.898 18.1028 99.8394 18.4466 92.4837L18.7653 85.6637C18.9391 81.9462 17.4471 78.3444 14.6955 75.8388L9.648 71.2419C4.20344 66.2831 4.20344 57.7169 9.648 52.7581L14.6955 48.1614C17.4471 45.6554 18.9391 42.0537 18.7653 38.336L18.4466 31.5165C18.1028 24.1605 24.1605 18.1028 31.5165 18.4466L38.336 18.7653C42.0537 18.9391 45.6554 17.4471 48.1614 14.6955L52.7581 9.648Z" stroke="black" stroke-width="10"/>
<path d="M62 80.75C72.3553 80.75 80.75 72.3553 80.75 62C80.75 51.6447 72.3553 43.25 62 43.25C51.6447 43.25 43.25 51.6447 43.25 62C43.25 72.3553 51.6447 80.75 62 80.75Z" stroke="black" stroke-width="10"/>
</g>
<defs>
<clipPath id="clip0_43_29">
<rect width="124" height="124" fill="white"/>
</clipPath>
</defs>
</svg>
