<svg width="136" height="136" viewBox="0 0 136 136" fill="none" xmlns="http://www.w3.org/2000/svg">
<g clip-path="url(#clip0_19_23)">
<path d="M68 29.5C63.2409 29.5 58.5887 30.9112 54.6316 33.5553C50.6745 36.1993 47.5904 39.9573 45.7692 44.3542C43.9479 48.751 43.4714 53.5892 44.3999 58.2569C45.3283 62.9245 47.6201 67.2121 50.9853 70.5773C54.3505 73.9425 58.638 76.2342 63.3057 77.1626C67.9733 78.0911 72.8115 77.6146 77.2083 75.7934C81.6052 73.9721 85.3632 70.888 88.0073 66.9309C90.6513 62.9739 92.0625 58.3216 92.0625 53.5625C92.0625 47.1807 89.5274 41.0603 85.0148 36.5477C80.5022 32.0351 74.3818 29.5 68 29.5ZM68 68C65.1445 68 62.3532 67.1533 59.979 65.5668C57.6047 63.9804 55.7542 61.7256 54.6615 59.0875C53.5688 56.4494 53.2828 53.5465 53.8399 50.7459C54.397 47.9453 55.772 45.3728 57.7912 43.3536C59.8103 41.3345 62.3828 39.9595 65.1834 39.4024C67.984 38.8453 70.8869 39.1312 73.525 40.224C76.1631 41.3167 78.4179 43.1672 80.0044 45.5415C81.5908 47.9157 82.4375 50.707 82.4375 53.5625C82.4332 57.3902 80.9107 61.06 78.2041 63.7666C75.4975 66.4732 71.8277 67.9957 68 68Z" fill="black"/>
<path d="M68 0.625C54.6745 0.625 41.6482 4.57648 30.5685 11.9797C19.4887 19.383 10.8531 29.9055 5.75365 42.2167C0.654192 54.5279 -0.680057 68.0747 1.91962 81.1442C4.5193 94.2137 10.9361 106.219 20.3587 115.641C29.7813 125.064 41.7864 131.481 54.8558 134.08C67.9253 136.68 81.4722 135.346 93.7833 130.246C106.094 125.147 116.617 116.511 124.02 105.432C131.424 94.3518 135.375 81.3255 135.375 68C135.355 50.1372 128.25 33.0118 115.619 20.3809C102.988 7.75001 85.8628 0.645125 68 0.625ZM39.125 117.937V111.312C39.1292 107.485 40.6517 103.815 43.3583 101.108C46.065 98.4016 49.7348 96.8792 53.5625 96.875H82.4375C86.2653 96.8792 89.9351 98.4016 92.6417 101.108C95.3484 103.815 96.8708 107.485 96.875 111.312V117.937C88.1123 123.054 78.1473 125.75 68 125.75C57.8528 125.75 47.8878 123.054 39.125 117.937ZM106.464 110.955C106.368 104.643 103.796 98.6201 99.3019 94.1859C94.8076 89.7517 88.7511 87.2608 82.4375 87.25H53.5625C47.249 87.2608 41.1925 89.7517 36.6982 94.1859C32.2039 98.6201 29.6318 104.643 29.5361 110.955C20.809 103.163 14.6546 92.9031 11.8879 81.535C9.1212 70.1669 9.87273 58.2265 14.0429 47.295C18.2132 36.3635 25.6054 26.9564 35.2407 20.3195C44.8761 13.6826 56.3001 10.1288 68 10.1288C79.7 10.1288 91.124 13.6826 100.759 20.3195C110.395 26.9564 117.787 36.3635 121.957 47.295C126.127 58.2265 126.879 70.1669 124.112 81.535C121.345 92.9031 115.191 103.163 106.464 110.955Z" fill="black"/>
</g>
<defs>
<clipPath id="clip0_19_23">
<rect width="136" height="136" fill="white"/>
</clipPath>
</defs>
</svg>
