<svg width="108" height="108" viewBox="0 0 108 108" fill="none" xmlns="http://www.w3.org/2000/svg">
<g clip-path="url(#clip0_56_54)">
<path fill-rule="evenodd" clip-rule="evenodd" d="M97.5338 35.9717C103.271 40.1042 107.167 46.5083 107.167 54C107.167 61.4917 103.271 67.9007 97.5338 72.0283C98.6938 78.998 96.8862 86.3253 91.6033 91.6033C86.3108 96.8958 78.9883 98.6552 72.0477 97.5242C67.9345 103.281 61.4723 107.167 54 107.167C46.5083 107.167 40.0897 103.266 35.9668 97.5193C29.0165 98.6552 21.6892 96.9007 16.3918 91.6033C11.0993 86.3108 9.34001 78.9835 10.5097 72.0283C4.77734 67.9055 0.833344 61.4965 0.833344 54C0.833344 46.5035 4.77734 40.0897 10.5097 35.9717C9.34001 29.0165 11.0993 21.6892 16.3967 16.3967C21.6795 11.109 29.0117 9.30617 36.0055 10.4662C40.1042 4.71934 46.5228 0.833336 54 0.833336C61.4675 0.833336 67.92 4.7145 72.038 10.4662C79.0077 9.30617 86.3253 11.1187 91.6033 16.3967C96.8862 21.6747 98.6987 29.002 97.5338 35.9717ZM76.1415 35.5657C76.6582 35.9344 77.0972 36.4013 77.4335 36.9397C77.7697 37.4782 77.9966 38.0775 78.1012 38.7037C78.2057 39.3298 78.186 39.9703 78.0429 40.5888C77.8999 41.2073 77.6365 41.7915 77.2677 42.3082L53.101 76.1415C52.6931 76.7129 52.1655 77.1885 51.5551 77.5354C50.9447 77.8822 50.2661 78.0919 49.5664 78.1498C48.8667 78.2078 48.1628 78.1126 47.5037 77.871C46.8445 77.6293 46.2459 77.247 45.7495 76.7505L31.2495 62.2505C30.3691 61.3389 29.8819 60.118 29.8929 58.8507C29.9039 57.5834 30.4122 56.3712 31.3084 55.475C32.2045 54.5789 33.4168 54.0706 34.6841 54.0596C35.9514 54.0486 37.1723 54.5357 38.0838 55.4162L48.548 65.8803L69.399 36.687C70.1444 35.6442 71.2736 34.9403 72.538 34.73C73.8025 34.5197 75.0987 34.8203 76.1415 35.5657Z" fill="#3DB9FF"/>
</g>
<defs>
<clipPath id="clip0_56_54">
<rect width="108" height="108" fill="white"/>
</clipPath>
</defs>
</svg>
