<svg width="132" height="148" viewBox="0 0 132 148" fill="none" xmlns="http://www.w3.org/2000/svg">
<g clip-path="url(#clip0_43_19)">
<path d="M5.33334 127.083V30.0167C5.33334 21.5226 5.33334 17.2755 6.98643 14.0312C8.44045 11.1773 10.7607 8.85712 13.6145 7.40309C16.8588 5.75 21.1059 5.75 29.6 5.75H102.4C110.894 5.75 115.142 5.75 118.386 7.40309C121.239 8.85712 123.56 11.1773 125.014 14.0312C126.667 17.2755 126.667 21.5226 126.667 30.0167V111.917H20.5C12.1237 111.917 5.33334 118.707 5.33334 127.083ZM5.33334 127.083C5.33334 135.46 12.1237 142.25 20.5 142.25H126.667M43.25 36.0833H88.75M43.25 66.4167H88.75M119.083 111.917V142.25" stroke="black" stroke-width="10" stroke-linecap="round" stroke-linejoin="round"/>
</g>
<defs>
<clipPath id="clip0_43_19">
<rect width="132" height="148" fill="white"/>
</clipPath>
</defs>
</svg>
