<svg width="151" height="151" viewBox="0 0 151 151" fill="none" xmlns="http://www.w3.org/2000/svg">
<g clip-path="url(#clip0_43_27)">
<path d="M84.1667 30.9989L37.5964 40.3129C34.9949 40.8332 33.6942 41.0934 32.6349 41.726C31.6985 42.2853 30.902 43.0509 30.3063 43.9646C29.6324 44.998 29.3212 46.2875 28.6987 48.8664L5.33334 145.665M5.33334 145.665L102.133 122.3C104.711 121.678 106.001 121.367 107.034 120.693C107.948 120.097 108.714 119.301 109.273 118.364C109.906 117.305 110.166 116.004 110.686 113.402L120 66.8319M5.33334 145.665L59.6997 91.2989M140.558 44.3908L106.608 10.4404C103.77 7.60227 102.351 6.1832 100.714 5.65157C99.2754 5.18388 97.7246 5.18388 96.2855 5.65157C94.6493 6.1832 93.2296 7.60227 90.3916 10.4404L85.1084 15.7241C82.2704 18.5623 80.8506 19.9813 80.3196 21.6176C79.8516 23.057 79.8516 24.6075 80.3196 26.0469C80.8506 27.6832 82.2704 29.1023 85.1084 31.9404L119.058 65.8909C121.896 68.7289 123.316 70.1479 124.952 70.6797C126.391 71.147 127.942 71.147 129.381 70.6797C131.017 70.1479 132.437 68.7289 135.275 65.8909L140.558 60.6069C143.396 57.7689 144.816 56.3499 145.347 54.7136C145.815 53.2742 145.815 51.7237 145.347 50.2843C144.816 48.6479 143.396 47.2289 140.558 44.3908ZM69.8333 66.8319C77.7496 66.8319 84.1667 73.2497 84.1667 81.1652C84.1667 89.0815 77.7496 95.4986 69.8333 95.4986C61.9172 95.4986 55.5 89.0815 55.5 81.1652C55.5 73.2497 61.9172 66.8319 69.8333 66.8319Z" stroke="black" stroke-width="10" stroke-linecap="round" stroke-linejoin="round"/>
</g>
<defs>
<clipPath id="clip0_43_27">
<rect width="151" height="151" fill="white"/>
</clipPath>
</defs>
</svg>
