<svg width="26" height="26" viewBox="0 0 26 26" fill="none" xmlns="http://www.w3.org/2000/svg">
<g clip-path="url(#clip0_37_50)">
<path d="M25.1339 23.3661C25.2501 23.4822 25.3422 23.62 25.4052 23.7717C25.4681 23.9234 25.5005 24.0859 25.5005 24.2502C25.5006 24.4144 25.4683 24.577 25.4055 24.7287C25.3426 24.8804 25.2505 25.0183 25.1344 25.1344C25.0183 25.2505 24.8804 25.3426 24.7287 25.4055C24.577 25.4683 24.4144 25.5006 24.2502 25.5005C24.0859 25.5005 23.9234 25.4681 23.7717 25.4052C23.62 25.3422 23.4822 25.2501 23.3661 25.1339L13 14.7677L2.63387 25.1339C2.3994 25.368 2.08154 25.4995 1.75016 25.4994C1.41878 25.4993 1.10101 25.3676 0.866689 25.1333C0.632369 24.899 0.500684 24.5812 0.50058 24.2498C0.500476 23.9185 0.631962 23.6006 0.866135 23.3661L11.2323 13L0.866135 2.63387C0.631962 2.3994 0.500476 2.08154 0.50058 1.75016C0.500684 1.41878 0.632369 1.10101 0.866689 0.866689C1.10101 0.632369 1.41878 0.500684 1.75016 0.50058C2.08154 0.500476 2.3994 0.631962 2.63387 0.866135L13 11.2323L23.3661 0.866135C23.6006 0.631962 23.9185 0.500476 24.2498 0.50058C24.5812 0.500684 24.899 0.632369 25.1333 0.866689C25.3676 1.10101 25.4993 1.41878 25.4994 1.75016C25.4995 2.08154 25.368 2.3994 25.1339 2.63387L14.7677 13L25.1339 23.3661Z" fill="black"/>
</g>
<defs>
<clipPath id="clip0_37_50">
<rect width="26" height="26" fill="white"/>
</clipPath>
</defs>
</svg>
