<svg width="901" height="246" viewBox="0 0 901 246" fill="none" xmlns="http://www.w3.org/2000/svg">
<g clip-path="url(#clip0_7_5)">
<mask id="mask0_7_5" style="mask-type:luminance" maskUnits="userSpaceOnUse" x="0" y="0" width="909" height="246">
<path d="M909 0H0V246H909V0Z" fill="white"/>
</mask>
<g mask="url(#mask0_7_5)">
<path d="M99.83 168.5L167.63 124.43C167.63 124.43 164.69 118.38 163.63 116.43C160.21 110.19 157.09 107.43 157.63 108.43H41.25C41.77 107.43 38.65 110.21 35.25 116.43C34.17 118.43 31.25 124.43 31.25 124.43L99.83 168.5Z" fill="black" stroke="black" stroke-miterlimit="10"/>
<path d="M88.7803 159.28L89.0003 235.44L100 240.78L110.56 236.22L110.44 159.78L101 165C100.489 165.281 99.9115 165.421 99.3281 165.405C98.7447 165.389 98.1759 165.218 97.6803 164.91L88.7803 159.28Z" fill="white" stroke="white" stroke-miterlimit="10"/>
<path d="M87.83 171.08L88 236L25.6 208C24.394 207.454 23.3676 206.576 22.6402 205.47C21.9127 204.364 21.5139 203.074 21.49 201.75L21 169.28V161.36L21.17 127.78V126.05C21.183 125.345 21.3698 124.655 21.7138 124.04C22.0579 123.425 22.5485 122.904 23.1421 122.524C23.7358 122.144 24.414 121.917 25.1167 121.862C25.8194 121.807 26.5247 121.927 27.17 122.21L87.76 149.21L87.83 171.08Z" fill="white" stroke="black" stroke-width="8" stroke-miterlimit="10"/>
<path d="M111.25 171.25L111 236L173.41 208C174.614 207.452 175.638 206.574 176.364 205.468C177.09 204.362 177.487 203.073 177.51 201.75L177.97 169.24V161.32L177.81 127.74V126.01C177.801 125.299 177.614 124.601 177.267 123.98C176.921 123.359 176.424 122.834 175.824 122.453C175.223 122.072 174.537 121.847 173.828 121.797C173.118 121.748 172.408 121.876 171.76 122.17L111.33 149.79L111.25 171.25Z" fill="white" stroke="black" stroke-width="8" stroke-miterlimit="10"/>
<path d="M86.21 233.83L89.33 236.96C92.7 242.77 105.83 243.08 109.92 236.71L115.17 230.33" stroke="black" stroke-width="8" stroke-miterlimit="10"/>
<path d="M28.5397 114.29L29.2197 118.22L90.8597 146.61C91.0277 146.683 91.1753 146.797 91.2897 146.94L96.1597 152.73C96.7497 153.61 98.4297 153.88 98.0797 151.81L96.7797 147C96.3997 145.75 94.3497 143.86 92.9497 142.57C92.3336 141.994 91.6361 141.513 90.8797 141.14L87.7797 139.61L29.1697 113.79C29.0941 113.755 29.0101 113.741 28.9272 113.751C28.8444 113.761 28.7659 113.794 28.7005 113.846C28.6352 113.898 28.5855 113.967 28.5571 114.045C28.5287 114.124 28.5227 114.208 28.5397 114.29Z" fill="white" stroke="white" stroke-miterlimit="10"/>
<path d="M171.12 114.29L170.44 118.22L108.8 146.61C108.63 146.681 108.482 146.795 108.37 146.94L103.5 152.73C102.91 153.61 101.23 153.88 101.58 151.81L102.88 147C103.26 145.75 105.31 143.86 106.71 142.57C107.326 141.994 108.023 141.513 108.78 141.14L111.88 139.61L170.49 113.79C170.565 113.755 170.649 113.741 170.732 113.751C170.815 113.761 170.894 113.794 170.959 113.846C171.024 113.898 171.074 113.967 171.102 114.045C171.131 114.124 171.137 114.208 171.12 114.29Z" fill="white" stroke="white" stroke-miterlimit="10"/>
<path d="M19.1805 160.54C23.1805 156.54 27.5905 160.16 34.4905 163.09C47.7005 168.68 55.1005 181.51 50.6305 191.58C45.5505 202.99 31.5705 205.27 18.9405 199.83C3.32046 193.1 -3.05953 177.42 3.13047 164.56C6.28047 157.99 16.1305 150.34 21.1905 150.51L19.1905 160.51" fill="black"/>
<path d="M19.1805 160.54C23.1805 156.54 27.5905 160.16 34.4905 163.09C47.7005 168.68 55.1005 181.51 50.6305 191.58C45.5505 202.99 31.5705 205.27 18.9405 199.83C3.32046 193.1 -3.05953 177.42 3.13047 164.56C6.28047 157.99 16.1305 150.34 21.1905 150.51L19.1905 160.51" stroke="black" stroke-miterlimit="10"/>
<path d="M180 160.54C176 156.54 171.59 160.16 164.68 163.09C151.48 168.68 144.07 181.51 148.55 191.58C153.63 202.99 167.55 205.27 180.24 199.83C195.86 193.1 202.24 177.42 196.05 164.56C192.9 158 183 150.34 178 150.51L180 160.51" fill="black"/>
<path d="M180 160.54C176 156.54 171.59 160.16 164.68 163.09C151.48 168.68 144.07 181.51 148.55 191.58C153.63 202.99 167.55 205.27 180.24 199.83C195.86 193.1 202.24 177.42 196.05 164.56C192.9 158 183 150.34 178 150.51L180 160.51" stroke="black" stroke-miterlimit="10"/>
<path d="M145.56 112.4H57.2902L38.6702 111.4C32.7603 102.724 29.4806 92.5268 29.2251 82.0324C28.9697 71.538 31.7494 61.193 37.2302 52.24V12.09C37.2302 6.09001 38.1202 2.91001 39.2302 2.09001C43.9602 -1.47999 57.5602 9.64001 61.3002 12.09C68.0296 16.5612 74.09 21.9651 79.3002 28.14C86.8829 24.8826 95.1416 23.5101 103.37 24.14C108.882 24.6137 114.284 25.964 119.37 28.14C126.37 19.63 130.85 16.48 137.43 12.14C141.16 9.66001 154.77 -1.45999 159.49 2.14001C160.61 2.99001 161.49 6.14001 161.49 12.14V52.22C166.971 61.173 169.751 71.518 169.495 82.0124C169.24 92.5067 165.96 102.704 160.05 111.38L145.56 112.4Z" fill="black" stroke="black" stroke-miterlimit="10"/>
<path d="M80.5806 90.36C79.9421 91.0459 79.2159 91.6444 78.4206 92.14C77.856 92.556 77.2368 92.8925 76.5806 93.14C71.0006 94.44 61.1306 94.92 56.7206 85.14C55.6106 82.62 55.3906 76 55.3906 76C55.3906 76 65.3906 75.44 69.5206 77.26C71.7901 78.1245 73.8941 79.3727 75.7406 80.95C78.3481 83.4667 80.0499 86.7752 80.5806 90.36Z" fill="white" stroke="white" stroke-miterlimit="10"/>
<path d="M71.4011 94.69C73.6489 94.69 75.4711 92.8678 75.4711 90.62C75.4711 88.3722 73.6489 86.55 71.4011 86.55C69.1533 86.55 67.3311 88.3722 67.3311 90.62C67.3311 92.8678 69.1533 94.69 71.4011 94.69Z" fill="black" stroke="black" stroke-miterlimit="10"/>
<path d="M117.9 90.36C118.546 91.0427 119.275 91.6408 120.07 92.14C120.632 92.5548 121.248 92.8912 121.9 93.14C127.49 94.44 137.35 94.92 141.76 85.14C142.87 82.68 143.1 76.05 143.1 76.05C143.1 76.05 133.1 75.49 128.97 77.31C126.701 78.1745 124.597 79.4227 122.75 81C120.151 83.5039 118.447 86.7927 117.9 90.36Z" fill="white" stroke="white" stroke-miterlimit="10"/>
<path d="M127.081 94.69C129.329 94.69 131.151 92.8678 131.151 90.62C131.151 88.3722 129.329 86.55 127.081 86.55C124.833 86.55 123.011 88.3722 123.011 90.62C123.011 92.8678 124.833 94.69 127.081 94.69Z" fill="black" stroke="black" stroke-miterlimit="10"/>
<path d="M92.9406 99.07H93.0906C99.0906 99.07 103.231 99 106.091 98.97C107.481 98.97 108.041 101.29 107.211 102.54C105.781 104.69 101.861 109.06 100.461 109.71C100.07 109.846 99.6519 109.885 99.2426 109.824C98.8333 109.763 98.4449 109.604 98.1106 109.36C93.7006 105.73 92.4706 104.18 91.9606 103.04C91.3306 101.7 91.0806 99.27 92.9406 99.07Z" fill="white" stroke="white" stroke-width="0.25" stroke-miterlimit="10"/>
<path d="M314.93 159.222C314.817 162.809 315.602 166.367 317.214 169.568C318.737 172.379 321.362 173.783 325.09 173.783H325.996C326.307 173.74 326.624 173.769 326.92 173.868C327.217 173.968 327.487 174.136 327.709 174.36C327.93 174.583 328.097 174.854 328.196 175.154C328.296 175.452 328.325 175.771 328.28 176.083V180.681C328.325 180.993 328.296 181.311 328.196 181.61C328.097 181.91 327.93 182.181 327.709 182.404C327.487 182.628 327.217 182.795 326.92 182.896C326.624 182.995 326.307 183.024 325.996 182.98H279.304C278.994 183.024 278.677 182.995 278.381 182.896C278.084 182.795 277.814 182.628 277.592 182.404C277.371 182.181 277.205 181.91 277.105 181.61C277.005 181.311 276.976 180.993 277.02 180.681V176.083C276.976 175.771 277.005 175.452 277.105 175.154C277.205 174.854 277.371 174.583 277.592 174.36C277.814 174.136 278.084 173.968 278.381 173.868C278.677 173.769 278.994 173.74 279.304 173.783H280.367C284.226 173.783 286.891 172.379 288.361 169.568C289.922 166.351 290.678 162.8 290.567 159.222V91.8313C290.698 88.2095 289.888 84.616 288.217 81.4056C286.642 78.6483 283.772 77.2697 279.606 77.2697H279.461C279.151 77.3137 278.835 77.2846 278.538 77.1846C278.242 77.0845 277.971 76.9165 277.749 76.6935C277.529 76.4706 277.362 76.1988 277.262 75.8998C277.163 75.6008 277.134 75.2826 277.177 74.9705V70.3192C277.134 70.007 277.163 69.6888 277.262 69.3897C277.362 69.0907 277.529 68.819 277.749 68.596C277.971 68.3731 278.242 68.205 278.538 68.105C278.835 68.0051 279.151 67.9759 279.461 68.02H335.343C342.782 67.8428 350.149 69.4985 356.805 72.843C362.529 75.7332 367.408 80.0674 370.969 85.4226C374.233 90.2914 375.982 96.0272 375.997 101.9C376.082 108.125 374.447 114.251 371.271 119.594C368.139 124.879 362.962 129.045 355.742 132.094C348.522 135.142 338.725 136.675 326.351 136.692H314.93V159.222ZM323.765 125.804C333.917 125.804 341.355 123.941 346.08 120.215C350.806 116.488 353.165 110.384 353.156 101.9C353.359 95.3839 351 89.0498 346.592 84.273C342.217 79.5689 336.227 77.2168 328.622 77.2168H314.051V125.804H323.765Z" fill="black"/>
<path d="M468.231 152.268C468.226 154.894 468.403 157.517 468.761 160.121C469.027 162.469 469.871 164.716 471.223 166.665C471.943 167.589 472.859 168.347 473.906 168.885C474.953 169.424 476.108 169.729 477.286 169.78C478.107 169.885 478.61 170.108 478.742 170.461C478.914 170.876 478.995 171.322 478.98 171.77V176.77C479.023 177.059 478.996 177.355 478.902 177.632C478.808 177.911 478.651 178.164 478.442 178.371C478.232 178.577 477.977 178.733 477.696 178.826C477.414 178.919 477.117 178.945 476.823 178.903C472.637 178.842 468.452 179.122 464.313 179.741C461.386 180.19 458.507 180.899 455.708 181.861C453.299 182.725 450.929 183.654 448.573 184.675C448.192 184.866 447.771 184.97 447.342 184.976H447.037C446.825 184.976 446.733 184.819 446.733 184.518C446.733 184.217 446.905 182.673 447.262 179.885C447.62 177.097 448.268 172.267 449.182 165.382C447.538 168.537 445.529 171.492 443.198 174.191C440.592 177.268 437.454 179.865 433.932 181.861C430.115 183.979 425.798 185.054 421.422 184.976C416.808 185.157 412.214 184.297 407.985 182.463C404.769 181.001 402.02 178.692 400.043 175.788C398.171 172.929 396.892 169.729 396.283 166.377C395.618 162.846 395.286 159.262 395.29 155.671V130.553C395.431 126.904 394.438 123.301 392.444 120.226C391.5 118.875 390.22 117.788 388.727 117.069C387.232 116.352 385.576 116.029 383.919 116.129H383.323C383.011 116.173 382.692 116.144 382.392 116.046C382.093 115.946 381.821 115.78 381.597 115.559C381.373 115.337 381.205 115.069 381.106 114.772C381.005 114.476 380.976 114.161 381.02 113.852V109.297C380.976 108.988 381.005 108.673 381.106 108.377C381.205 108.08 381.373 107.811 381.597 107.59C381.821 107.369 382.093 107.203 382.392 107.103C382.692 107.005 383.011 106.976 383.323 107.02H414.498C414.811 106.976 415.13 107.005 415.43 107.103C415.73 107.203 416.002 107.369 416.225 107.59C416.448 107.811 416.617 108.08 416.717 108.377C416.818 108.673 416.847 108.988 416.802 109.297V156.521C416.779 159.046 417.036 161.566 417.57 164.034C417.976 166.147 419.08 168.066 420.707 169.492C422.76 171.011 425.301 171.74 427.856 171.547C430.531 171.52 433.161 170.869 435.534 169.649C438.061 168.405 440.367 166.765 442.364 164.793C444.195 163.059 445.634 160.964 446.587 158.642V130.553C446.728 126.904 445.735 123.301 443.741 120.226C442.824 118.886 441.571 117.805 440.105 117.087C438.638 116.369 437.008 116.039 435.375 116.129H435.07C434.758 116.173 434.439 116.144 434.14 116.046C433.84 115.946 433.568 115.78 433.344 115.559C433.12 115.337 432.952 115.069 432.853 114.772C432.752 114.476 432.723 114.161 432.767 113.852V109.297C432.723 108.988 432.752 108.673 432.853 108.377C432.952 108.08 433.12 107.811 433.344 107.59C433.568 107.369 433.84 107.203 434.14 107.103C434.439 107.005 434.758 106.976 435.07 107.02H465.928C466.24 106.976 466.559 107.005 466.86 107.103C467.159 107.203 467.432 107.369 467.654 107.59C467.878 107.811 468.046 108.08 468.146 108.377C468.246 108.673 468.276 108.988 468.231 109.297V152.268Z" fill="black"/>
<path d="M491.897 102.128C491.9 99.488 491.719 96.8513 491.355 94.2366C491.083 91.9198 490.268 89.6991 488.977 87.7526C488.257 86.8053 487.333 86.0318 486.272 85.4898C485.211 84.9479 484.04 84.6514 482.848 84.6224C482.59 84.6297 482.335 84.5819 482.098 84.4825C481.862 84.3829 481.649 84.2341 481.475 84.0458C481.301 83.8576 481.17 83.6344 481.089 83.3913C481.01 83.1481 480.982 82.8907 481.011 82.6365V77.4546C480.985 77.2078 481.02 76.9586 481.116 76.729C481.209 76.4995 481.36 76.2968 481.553 76.1394C482.051 75.8281 482.594 75.5972 483.165 75.4555C489.757 73.4938 496.124 70.849 502.162 67.5642C505.533 65.6435 508.805 63.5541 511.964 61.3039C512.188 61.138 512.453 61.0337 512.73 61.0014H512.889C512.93 60.9973 512.971 61.0023 513.009 61.016C513.048 61.0298 513.083 61.0519 513.112 61.0808C513.141 61.1099 513.163 61.1449 513.178 61.1834C513.191 61.2219 513.196 61.2631 513.192 61.3039V112.268C515.053 109.909 517.518 108.092 520.326 107.007C523.931 105.476 527.822 104.723 531.74 104.798C536.09 104.823 540.409 105.546 544.528 106.941C549.211 108.475 553.51 110.991 557.134 114.318C560.757 117.647 563.622 121.711 565.533 126.235C567.992 132.209 569.166 138.629 568.981 145.082C569.088 152.253 567.409 159.338 564.093 165.705C560.962 171.682 556.139 176.617 550.222 179.896C543.656 183.423 536.278 185.179 528.821 184.986C522.49 185.054 516.206 183.889 510.326 181.553C504.788 179.339 500.095 175.441 496.917 170.413C493.588 165.284 491.927 158.546 491.936 150.198L491.897 102.128ZM513.192 153.421C513.027 157.625 513.87 161.809 515.65 165.626C517.062 168.536 519.298 170.973 522.083 172.636C524.585 174.118 527.44 174.909 530.353 174.924C535.364 174.924 539.221 173.731 541.926 171.347C544.703 168.841 546.675 165.575 547.593 161.956C548.68 158.033 549.222 153.98 549.205 149.909C549.205 140.133 547.135 132.404 542.996 126.722C538.857 121.04 532.854 118.19 524.99 118.173C520.728 118.161 516.582 119.548 513.192 122.119V153.421Z" fill="black"/>
<path d="M618.664 173.844C618.979 173.801 619.299 173.83 619.601 173.928C619.901 174.028 620.176 174.195 620.4 174.418C620.624 174.64 620.793 174.91 620.894 175.208C620.995 175.506 621.025 175.823 620.979 176.133V180.711C620.979 182.237 620.101 183 618.318 183H574.681C572.925 183 572.02 182.237 572.02 180.711V176.133C571.976 175.823 572.005 175.506 572.106 175.208C572.206 174.91 572.376 174.64 572.6 174.418C572.825 174.195 573.099 174.028 573.4 173.928C573.701 173.83 574.021 173.801 574.335 173.844H574.681C576.334 173.947 577.986 173.613 579.463 172.875C580.941 172.137 582.195 171.022 583.092 169.648C584.96 166.538 585.884 162.962 585.753 159.347V102.084C585.761 99.3782 585.579 96.675 585.208 93.9939C584.93 91.6797 584.115 89.4603 582.826 87.5085C582.095 86.5679 581.162 85.7993 580.095 85.258C579.026 84.7165 577.851 84.4159 576.651 84.3777C576.393 84.3887 576.133 84.3442 575.894 84.2472C575.653 84.1501 575.437 84.0026 575.26 83.8151C575.083 83.6276 574.949 83.4045 574.868 83.1608C574.787 82.9173 574.76 82.6592 574.788 82.4044V77.2477C574.769 77.0066 574.817 76.7649 574.928 76.549C575.038 76.3333 575.206 76.1516 575.413 76.0243L577.103 75.2613C583.107 73.1811 588.966 70.716 594.643 67.8814C598.439 65.9699 602.078 63.7709 605.529 61.3039C605.686 61.1278 605.906 61.0191 606.141 61.0014H606.62C606.661 60.9973 606.704 61.0023 606.743 61.016C606.781 61.0298 606.817 61.0519 606.846 61.0808C606.876 61.1098 606.898 61.1449 606.912 61.1834C606.926 61.222 606.932 61.2632 606.926 61.3039V159.269C606.813 162.922 607.779 166.529 609.708 169.648C610.609 171.045 611.87 172.179 613.363 172.93C614.856 173.682 616.527 174.024 618.198 173.923L618.664 173.844Z" fill="black"/>
<path d="M671.665 173.838C671.979 173.794 672.3 173.823 672.601 173.922C672.901 174.022 673.175 174.189 673.4 174.412C673.624 174.634 673.794 174.904 673.894 175.203C673.995 175.5 674.024 175.818 673.98 176.128V180.709C673.98 182.236 673.102 183 671.319 183H627.682C625.925 183 625.021 182.236 625.021 180.709V176.128C624.975 175.818 625.005 175.5 625.106 175.203C625.207 174.904 625.376 174.634 625.601 174.412C625.824 174.189 626.098 174.022 626.399 173.922C626.701 173.823 627.02 173.794 627.336 173.838H627.642C629.294 173.941 630.944 173.606 632.422 172.868C633.9 172.129 635.152 171.014 636.05 169.639C637.916 166.527 638.84 162.949 638.711 159.331V143.139C638.707 140.791 638.524 138.445 638.165 136.123C637.863 133.931 637.048 131.839 635.784 130.015C635.043 129.091 634.106 128.338 633.039 127.81C631.973 127.282 630.803 126.992 629.611 126.961C629.35 126.97 629.092 126.924 628.851 126.825C628.611 126.726 628.396 126.578 628.219 126.388C628.042 126.2 627.909 125.976 627.828 125.731C627.745 125.488 627.719 125.228 627.748 124.973V119.786C627.721 119.531 627.765 119.274 627.876 119.043C627.985 118.81 628.158 118.612 628.373 118.47C628.901 118.166 629.47 117.935 630.063 117.785C636.631 115.833 642.932 113.087 648.822 109.611C652.302 107.504 655.538 105.023 658.467 102.212C658.542 102.121 658.635 102.046 658.74 101.991C658.845 101.937 658.961 101.905 659.079 101.896H659.545C659.588 101.892 659.63 101.897 659.67 101.912C659.71 101.926 659.746 101.949 659.777 101.98C659.806 102.011 659.827 102.047 659.84 102.088C659.854 102.128 659.856 102.171 659.851 102.212V159.16C659.737 162.816 660.703 166.425 662.632 169.546C663.531 170.944 664.792 172.079 666.285 172.831C667.778 173.584 669.447 173.926 671.12 173.825L671.665 173.838ZM649.594 70C652.254 70 654.879 71.2726 657.47 73.8176C660.037 76.3582 661.328 78.9121 661.328 81.4527C661.328 83.9934 659.997 86.5472 657.47 89.0878C654.942 91.6285 652.268 92.9054 649.594 92.9054C646.919 92.9054 644.551 91.589 641.877 89.0878C639.203 86.5867 638.019 84.0987 638.019 81.4527C638.019 78.8067 639.349 76.3582 641.877 73.8176C644.405 71.2769 647.026 70 649.594 70Z" fill="black"/>
<path d="M744.101 162.488C744.448 162.697 744.739 162.986 744.951 163.331C745.163 163.676 745.289 164.066 745.319 164.47C745.267 164.887 745.166 165.297 745.018 165.691C742.396 171.831 737.831 176.936 732.027 180.22C726.291 183.416 719.824 185.062 713.261 184.998C707.868 185.062 702.545 183.781 697.769 181.27C693.16 178.82 689.121 175.42 685.917 171.295C682.688 167.128 680.274 162.384 678.806 157.317C677.287 152.134 676.719 146.717 677.13 141.33C677.837 132.904 680.168 126 684.123 120.619C687.817 115.491 692.783 111.419 698.528 108.806C703.841 106.339 709.619 105.041 715.474 105C722.153 105 727.57 106.015 731.726 108.045C735.543 109.796 738.841 112.51 741.299 115.92C743.45 119.003 744.997 122.47 745.856 126.131C745.942 126.479 745.991 126.836 746 127.195C746 128.008 745.398 128.507 744.18 128.861L726.71 133.429C726.291 133.597 725.851 133.703 725.401 133.744C725.255 133.766 725.106 133.753 724.964 133.707C724.824 133.661 724.697 133.583 724.592 133.478C724.488 133.373 724.409 133.245 724.363 133.105C724.318 132.964 724.304 132.815 724.327 132.668C724.328 132.264 724.354 131.861 724.405 131.46C724.465 130.902 724.492 130.341 724.484 129.78C724.518 126.621 723.441 123.55 721.446 121.105C719.416 118.571 716.286 117.298 712.03 117.298C710.33 117.206 708.63 117.486 707.047 118.116C705.465 118.745 704.037 119.711 702.863 120.947C700.515 123.625 698.867 126.844 698.07 130.318C697.099 134.224 696.616 138.237 696.629 142.262C696.602 147.054 697.267 151.824 698.607 156.424C699.717 160.556 701.926 164.307 704.997 167.279C707.983 170.07 712.061 171.466 717.229 171.466C721.171 171.496 725.049 170.472 728.465 168.499C731.917 166.516 734.839 163.724 736.977 160.362C737.149 160.028 737.411 159.75 737.733 159.56C738.055 159.37 738.424 159.274 738.797 159.286C739.271 159.293 739.731 159.455 740.107 159.745L744.101 162.488Z" fill="black"/>
<path d="M830.114 154.886C830.058 158.229 830.626 161.554 831.792 164.693C832.915 167.59 835.372 169.281 839.151 169.792C839.409 169.783 839.665 169.829 839.903 169.927C840.141 170.026 840.355 170.174 840.529 170.363C840.703 170.55 840.834 170.774 840.914 171.017C840.993 171.261 841.018 171.518 840.987 171.772V176.78C840.987 178.209 840.221 178.917 838.689 178.917C834.511 178.855 830.334 179.136 826.203 179.756C823.281 180.207 820.408 180.918 817.615 181.88C815.223 182.745 812.845 183.676 810.493 184.698C810.163 184.875 809.797 184.979 809.423 185H808.96C808.749 185 808.657 184.79 808.657 184.384C808.708 183.391 808.81 182.403 808.96 181.421C809.159 179.848 809.397 178.078 809.648 176.098C809.899 174.119 810.136 172.427 810.335 171.012C809.474 172.92 808.369 174.709 807.045 176.334C805.043 178.826 802.535 180.872 799.685 182.339C795.76 184.257 791.41 185.159 787.041 184.961C783.24 184.902 779.478 184.178 775.929 182.824C771.806 181.292 768.03 178.967 764.818 175.98C761.112 172.509 758.209 168.282 756.309 163.591C753.957 157.61 752.838 151.222 753.019 144.805C753.019 135.382 754.733 127.758 758.159 121.928C761.226 116.431 765.865 111.956 771.49 109.067C776.879 106.366 782.839 104.972 788.878 105.003C793.575 104.95 798.245 105.722 802.671 107.284C806.745 108.743 810.494 110.968 813.717 113.839C816.36 112.72 818.632 111.679 820.535 110.718C822.23 109.878 823.843 108.887 825.357 107.756C825.872 107.349 826.401 106.943 826.969 106.536C827.583 106.095 828.223 105.687 828.885 105.317C829.107 105.148 829.372 105.043 829.651 105.016H829.81C829.851 105.012 829.892 105.017 829.93 105.03C829.97 105.044 830.004 105.065 830.033 105.094C830.062 105.123 830.085 105.159 830.099 105.197C830.112 105.236 830.118 105.276 830.114 105.317V154.886ZM808.657 131.013C808.244 128.665 807.497 126.386 806.437 124.248C805.227 121.719 803.413 119.523 801.152 117.85C798.363 115.963 795.023 115.04 791.652 115.228C786.745 115.228 782.915 116.421 780.157 118.807C777.369 121.235 775.369 124.429 774.41 127.984C773.315 131.894 772.773 135.936 772.798 139.993C772.798 149.738 774.767 157.443 778.704 163.106C782.641 168.77 787.723 171.611 793.951 171.628C797.022 171.802 800.067 170.974 802.619 169.268C804.434 167.991 805.972 166.364 807.137 164.483C807.697 163.544 808.209 162.577 808.67 161.585L808.657 131.013Z" fill="black"/>
<path d="M900.548 172.108C900.835 172.488 900.993 172.947 901 173.421C901 174.038 900.587 174.589 899.776 175.101L895.146 177.989C891.97 179.911 888.609 181.521 885.114 182.794C881.373 184.233 877.395 184.98 873.379 185C870.339 185.014 867.343 184.279 864.665 182.86C861.73 181.228 859.424 178.685 858.105 175.626C856.456 172.23 855.631 167.536 855.631 161.54V133.42C855.629 130.7 855.474 127.984 855.165 125.281C854.957 122.827 853.96 120.505 852.318 118.651C850.721 116.901 848.06 116.026 844.335 116.026C844.021 116.069 843.7 116.04 843.4 115.942C843.097 115.842 842.825 115.675 842.6 115.453C842.375 115.232 842.206 114.962 842.105 114.664C842.005 114.368 841.976 114.051 842.02 113.742V109.173C841.976 108.863 842.005 108.547 842.105 108.25C842.206 107.952 842.375 107.683 842.6 107.461C842.825 107.239 843.097 107.073 843.4 106.973C843.7 106.874 844.021 106.845 844.335 106.889H855.604V96.6884C855.544 96.154 855.636 95.6137 855.871 95.1287C856.107 94.6438 856.476 94.2335 856.935 93.9447C859.196 92.7238 862.19 91.0303 865.889 88.838C869.489 86.7426 872.81 84.2112 875.774 81.3025C875.875 81.2025 875.995 81.124 876.128 81.0721C876.261 81.0202 876.403 80.9957 876.546 81.0006H876.852C877.051 81.0006 877.158 81.1581 877.158 81.4601V106.889H897.833C898.147 106.845 898.468 106.874 898.769 106.973C899.071 107.073 899.344 107.239 899.568 107.461C899.793 107.683 899.962 107.952 900.063 108.25C900.163 108.547 900.192 108.863 900.148 109.173V115.737C900.192 116.047 900.163 116.363 900.063 116.66C899.962 116.958 899.793 117.227 899.568 117.449C899.344 117.671 899.071 117.837 898.769 117.937C898.468 118.036 898.147 118.065 897.833 118.021H877.238V161.567C877.238 165.531 877.854 168.249 879.087 169.719C879.634 170.415 880.336 170.975 881.14 171.359C881.944 171.741 882.826 171.935 883.717 171.924C885.66 171.881 887.566 171.386 889.278 170.48C891.234 169.522 893.03 168.524 894.68 167.513C895.184 167.177 895.765 166.965 896.37 166.896C896.995 166.896 897.554 167.303 898.073 168.117L900.548 172.108Z" fill="black"/>
</g>
</g>
<defs>
<clipPath id="clip0_7_5">
<rect width="901" height="246" fill="white"/>
</clipPath>
</defs>
</svg>
