<svg width="199" height="246" viewBox="0 0 199 246" fill="none" xmlns="http://www.w3.org/2000/svg">
<g clip-path="url(#clip0_932_2)">
<path d="M99.83 168.5L167.63 124.43C167.63 124.43 164.69 118.38 163.63 116.43C160.21 110.19 157.09 107.43 157.63 108.43H41.25C41.77 107.43 38.65 110.21 35.25 116.43C34.17 118.43 31.25 124.43 31.25 124.43L99.83 168.5Z" fill="black" stroke="black" stroke-miterlimit="10"/>
<path d="M88.7803 159.28L89.0003 235.44L100 240.78L110.56 236.22L110.44 159.78L101 165C100.489 165.281 99.9115 165.421 99.3281 165.405C98.7447 165.389 98.1759 165.218 97.6803 164.91L88.7803 159.28Z" fill="white" stroke="white" stroke-miterlimit="10"/>
<path d="M87.83 171.08L88 236L25.6 208C24.394 207.454 23.3676 206.576 22.6402 205.47C21.9127 204.364 21.5139 203.074 21.49 201.75L21 169.28V161.36L21.17 127.78V126.05C21.183 125.345 21.3698 124.655 21.7138 124.04C22.0579 123.425 22.5485 122.904 23.1421 122.524C23.7358 122.144 24.414 121.917 25.1167 121.862C25.8194 121.807 26.5247 121.927 27.17 122.21L87.76 149.21L87.83 171.08Z" fill="white" stroke="black" stroke-width="8" stroke-miterlimit="10"/>
<path d="M111.25 171.25L111 236L173.41 208C174.614 207.452 175.638 206.574 176.364 205.468C177.09 204.362 177.487 203.073 177.51 201.75L177.97 169.24V161.32L177.81 127.74V126.01C177.801 125.299 177.614 124.601 177.267 123.98C176.921 123.359 176.424 122.834 175.824 122.453C175.223 122.072 174.537 121.847 173.828 121.797C173.118 121.748 172.408 121.876 171.76 122.17L111.33 149.79L111.25 171.25Z" fill="white" stroke="black" stroke-width="8" stroke-miterlimit="10"/>
<path d="M86.21 233.83L89.33 236.96C92.7 242.77 105.83 243.08 109.92 236.71L115.17 230.33" stroke="black" stroke-width="8" stroke-miterlimit="10"/>
<path d="M28.5397 114.29L29.2197 118.22L90.8597 146.61C91.0277 146.683 91.1753 146.797 91.2897 146.94L96.1597 152.73C96.7497 153.61 98.4297 153.88 98.0797 151.81L96.7797 147C96.3997 145.75 94.3497 143.86 92.9497 142.57C92.3336 141.994 91.6361 141.513 90.8797 141.14L87.7797 139.61L29.1697 113.79C29.0941 113.755 29.0101 113.741 28.9272 113.751C28.8444 113.761 28.7659 113.794 28.7005 113.846C28.6352 113.898 28.5855 113.967 28.5571 114.045C28.5287 114.124 28.5227 114.208 28.5397 114.29Z" fill="white" stroke="white" stroke-miterlimit="10"/>
<path d="M171.12 114.29L170.44 118.22L108.8 146.61C108.63 146.681 108.482 146.795 108.37 146.94L103.5 152.73C102.91 153.61 101.23 153.88 101.58 151.81L102.88 147C103.26 145.75 105.31 143.86 106.71 142.57C107.326 141.994 108.023 141.513 108.78 141.14L111.88 139.61L170.49 113.79C170.565 113.755 170.649 113.741 170.732 113.751C170.815 113.761 170.894 113.794 170.959 113.846C171.024 113.898 171.074 113.967 171.102 114.045C171.131 114.124 171.137 114.208 171.12 114.29Z" fill="white" stroke="white" stroke-miterlimit="10"/>
<path d="M19.1805 160.54C23.1805 156.54 27.5905 160.16 34.4905 163.09C47.7005 168.68 55.1005 181.51 50.6305 191.58C45.5505 202.99 31.5705 205.27 18.9405 199.83C3.32046 193.1 -3.05953 177.42 3.13047 164.56C6.28047 157.99 16.1305 150.34 21.1905 150.51L19.1905 160.51" fill="black"/>
<path d="M19.1805 160.54C23.1805 156.54 27.5905 160.16 34.4905 163.09C47.7005 168.68 55.1005 181.51 50.6305 191.58C45.5505 202.99 31.5705 205.27 18.9405 199.83C3.32046 193.1 -3.05953 177.42 3.13047 164.56C6.28047 157.99 16.1305 150.34 21.1905 150.51L19.1905 160.51" stroke="black" stroke-miterlimit="10"/>
<path d="M180 160.54C176 156.54 171.59 160.16 164.68 163.09C151.48 168.68 144.07 181.51 148.55 191.58C153.63 202.99 167.55 205.27 180.24 199.83C195.86 193.1 202.24 177.42 196.05 164.56C192.9 158 183 150.34 178 150.51L180 160.51" fill="black"/>
<path d="M180 160.54C176 156.54 171.59 160.16 164.68 163.09C151.48 168.68 144.07 181.51 148.55 191.58C153.63 202.99 167.55 205.27 180.24 199.83C195.86 193.1 202.24 177.42 196.05 164.56C192.9 158 183 150.34 178 150.51L180 160.51" stroke="black" stroke-miterlimit="10"/>
<path d="M145.56 112.4H57.2902L38.6702 111.4C32.7603 102.724 29.4806 92.5268 29.2251 82.0324C28.9697 71.538 31.7494 61.193 37.2302 52.24V12.09C37.2302 6.09001 38.1202 2.91001 39.2302 2.09001C43.9602 -1.47999 57.5602 9.64001 61.3002 12.09C68.0296 16.5612 74.09 21.9651 79.3002 28.14C86.8829 24.8826 95.1416 23.5101 103.37 24.14C108.882 24.6137 114.284 25.964 119.37 28.14C126.37 19.63 130.85 16.48 137.43 12.14C141.16 9.66001 154.77 -1.45999 159.49 2.14001C160.61 2.99001 161.49 6.14001 161.49 12.14V52.22C166.971 61.173 169.751 71.518 169.495 82.0124C169.24 92.5067 165.96 102.704 160.05 111.38L145.56 112.4Z" fill="black" stroke="black" stroke-miterlimit="10"/>
<path d="M80.5806 90.36C79.9421 91.0459 79.2159 91.6444 78.4206 92.14C77.856 92.556 77.2368 92.8925 76.5806 93.14C71.0006 94.44 61.1306 94.92 56.7206 85.14C55.6106 82.62 55.3906 76 55.3906 76C55.3906 76 65.3906 75.44 69.5206 77.26C71.7901 78.1245 73.8941 79.3727 75.7406 80.95C78.3481 83.4666 80.0499 86.7752 80.5806 90.36Z" fill="white" stroke="white" stroke-miterlimit="10"/>
<path d="M71.4011 94.69C73.6489 94.69 75.4711 92.8678 75.4711 90.62C75.4711 88.3722 73.6489 86.55 71.4011 86.55C69.1533 86.55 67.3311 88.3722 67.3311 90.62C67.3311 92.8678 69.1533 94.69 71.4011 94.69Z" fill="black" stroke="black" stroke-miterlimit="10"/>
<path d="M117.9 90.36C118.546 91.0427 119.275 91.6408 120.07 92.14C120.632 92.5548 121.248 92.8912 121.9 93.14C127.49 94.44 137.35 94.92 141.76 85.14C142.87 82.68 143.1 76.05 143.1 76.05C143.1 76.05 133.1 75.49 128.97 77.31C126.701 78.1745 124.597 79.4227 122.75 81C120.151 83.5039 118.447 86.7927 117.9 90.36Z" fill="white" stroke="white" stroke-miterlimit="10"/>
<path d="M127.081 94.69C129.329 94.69 131.151 92.8678 131.151 90.62C131.151 88.3722 129.329 86.55 127.081 86.55C124.833 86.55 123.011 88.3722 123.011 90.62C123.011 92.8678 124.833 94.69 127.081 94.69Z" fill="black" stroke="black" stroke-miterlimit="10"/>
<path d="M92.9406 99.07H93.0906C99.0906 99.07 103.231 99 106.091 98.97C107.481 98.97 108.041 101.29 107.211 102.54C105.781 104.69 101.861 109.06 100.461 109.71C100.07 109.846 99.6519 109.885 99.2426 109.824C98.8333 109.763 98.4449 109.604 98.1106 109.36C93.7006 105.73 92.4706 104.18 91.9606 103.04C91.3306 101.7 91.0806 99.27 92.9406 99.07Z" fill="white" stroke="white" stroke-width="0.25" stroke-miterlimit="10"/>
</g>
<defs>
<clipPath id="clip0_932_2">
<rect width="199" height="246" fill="white"/>
</clipPath>
</defs>
</svg>
